<?xml version="1.0" encoding="utf-8"?>
<!-- Generator: Adobe Illustrator 26.1.0, SVG Export Plug-In . SVG Version: 6.00 Build 0)  -->
<svg version="1.1" id="Layer_1" xmlns="http://www.w3.org/2000/svg" xmlns:xlink="http://www.w3.org/1999/xlink" x="0px" y="0px"
	 viewBox="0 0 244.4 244.4" style="enable-background:new 0 0 244.4 244.4;" xml:space="preserve">
<style type="text/css">
	.st0{opacity:0.75;}
	.st1{fill-opacity:0.9961;stroke:#191919;stroke-width:0.75;}
	.st2{fill:#CCCCCC;fill-opacity:0.9961;}
	.st3{opacity:0.9;fill:#262626;fill-opacity:0.9961;enable-background:new    ;}
	.st4{opacity:0.5;fill-opacity:0.9961;enable-background:new    ;}
	.st5{fill:#212121;stroke:#191919;stroke-width:0.75;}
	
		.st6{opacity:0.5;fill:none;stroke:#292929;stroke-width:0.75;stroke-linecap:round;stroke-linejoin:round;enable-background:new    ;}
	.st7{fill:url(#path3757_00000172422478186809080790000008092938220513587593_);}
	.st8{fill:url(#path3787_00000034794861172735734150000001571544785725813667_);}
	.st9{fill:url(#path3752_00000053502907993179139780000001202291382842508179_);}
	.st10{fill:url(#path3735_00000090996999384533201810000015993162430321888914_);}
	.st11{fill:url(#path3783_00000182500794753859072000000012105423339020802715_);}
	.st12{fill:url(#path3799_00000080200239506389682460000005307727077170526104_);}
	.st13{fill:url(#path3803_00000142887365285124055270000005532216415937652919_);}
	.st14{fill:url(#rect3861_00000097475332688216405540000015744649697671404948_);}
	.st15{fill:url(#path3864_00000083052451240380601440000015047205840732108728_);}
	.st16{opacity:0.9;fill:#191919;enable-background:new    ;}
	.st17{opacity:0.9;fill:#262626;fill-opacity:0.9961;stroke:#191919;stroke-width:0.75;enable-background:new    ;}
	.st18{fill:url(#path4165_00000141437160085983876910000014489268745422799012_);}
	.st19{fill:url(#path4167_00000137129384218397925370000013748797441940865199_);}
	.st20{fill:url(#path4169_00000095300955019205821760000003811652385999840700_);}
	.st21{fill:url(#path4171_00000077308016001581158040000007881051003138027705_);}
	.st22{fill:url(#path4173_00000052067956714359979930000001219624950237046688_);}
	.st23{fill:url(#path4175_00000042712876385990560270000001160153686583477916_);}
	.st24{fill:url(#path4177_00000062168859115016415960000013778706369150284161_);}
	.st25{fill:url(#path4179_00000169544444911704845770000008979933679830336394_);}
	.st26{fill:url(#path4181_00000031169034420039362530000006309988025118472878_);}
	.st27{fill:none;stroke:#000000;stroke-width:4;stroke-miterlimit:10;}
	.st28{fill:none;stroke:#FF0000;stroke-width:8;stroke-linecap:round;stroke-linejoin:round;}
	.st29{fill:#FF0000;}
	.st30{fill:none;stroke:#00FF00;stroke-width:8;stroke-linecap:round;stroke-linejoin:round;}
	.st31{fill:#00FF00;}
	.st32{fill:none;}
	.st33{font-family:'MyriadPro-Regular';}
	.st34{font-size:15px;}
	.st35{fill:none;stroke:#666666;stroke-width:2;stroke-miterlimit:10;stroke-dasharray:3.0068,3.0068;}
</style>
<g>
	<g>
		<g>
			<g id="layer1" transform="translate(-52.937117,-486.6931)" class="st0">
				<g id="g3890">
					<path id="path3855" class="st1" d="M143.3,598.2c0,0.2,0,0.7,0.1,0.9l0.2,0.5l5-1.2l0,17.2c0,0.3,0,0.7,0,1c0,0.7,0,1.4,0,2
						c0,1-0.1,2-0.1,3c0,0.1,0,0.1,0,0.2c-0.1,2.1-0.2,4.1-0.3,6.2c-0.2,2.8-0.4,5.6-0.5,8.3c-0.1,2-0.2,4-0.3,5.8
						c0,1.3-0.1,2.5-0.1,3.8c0,0.6,0,1.2,0,1.8c0,0.6,0,1.2,0.1,1.7c0,0.3,0,0.6,0.1,0.9c0.1,0.9,0.2,1.8,0.3,2.7c0,0,0,0,0,0
						c0.1,0.6,0.2,1.2,0.3,1.8c0.1,0.6,0.2,1.2,0.3,1.8c0.1,0.6,0.2,1.2,0.3,1.7c0,0,0,0,0,0c0.1,0.3,0.1,0.6,0.2,0.8
						c0.2,0.8,0.3,1.6,0.5,2.4c0,0,0,0,0,0c0.1,0.5,0.2,1,0.3,1.5c0.2,0.9,0.4,1.8,0.6,2.6c0.3,1.1,0.5,2,0.7,2.5
						c0.1,0.3,0.2,0.5,0.2,0.5l0.5,1.9c0,0.1,0.1,0.2,0.2,0.4c0,0,0.1,0.1,0.1,0.1c0.1,0.2,0.3,0.3,0.5,0.4c0,0,0,0,0,0
						c0.1,0.1,0.2,0.1,0.4,0.2c0,0,0,0,0,0c0.1,0.1,0.3,0.1,0.4,0.2c0,0,0,0,0,0c1.2,0.5,2.9,0.9,5,1.2c0,0,0,0,0,0c0,0,0.1,0,0.1,0
						c0.5,0.1,0.9,0.1,1.4,0.2c0,0,0.1,0,0.1,0c0.6,0.1,1.1,0.1,1.7,0.2c0,0,0,0,0,0c0.3,0,0.6,0.1,0.9,0.1c0,0,0,0,0,0
						c0.3,0,0.6,0.1,0.9,0.1c0,0,0,0,0,0c0.6,0,1.2,0.1,1.9,0.1c0,0,0,0,0,0c1.9,0.1,3.8,0.2,5.7,0.2c0,0,0,0,0,0c1.3,0,2.5,0,3.7,0
						c0.1,0,0.3,0,0.4,0c0.1,0,0.3,0,0.4,0c1.2,0,2.4,0,3.7,0c0,0,0,0,0,0c1.9,0,3.8-0.1,5.7-0.2c0,0,0,0,0,0c0.6,0,1.3-0.1,1.9-0.1
						c0,0,0,0,0,0c0.3,0,0.6-0.1,0.9-0.1c0,0,0,0,0,0c0.3,0,0.6-0.1,0.9-0.1c0,0,0,0,0,0c0.6-0.1,1.2-0.1,1.7-0.2c0,0,0.1,0,0.1,0
						c0.5-0.1,1-0.1,1.4-0.2c0,0,0.1,0,0.1,0c0,0,0,0,0,0c2.1-0.3,3.8-0.7,5-1.2c0,0,0,0,0,0c0.1-0.1,0.3-0.1,0.4-0.2c0,0,0,0,0,0
						c0.1-0.1,0.2-0.1,0.4-0.2c0,0,0,0,0,0c0.2-0.1,0.4-0.3,0.5-0.4c0,0,0.1-0.1,0.1-0.1c0.1-0.1,0.1-0.2,0.2-0.4l0.5-1.9
						c0,0,0.1-0.2,0.2-0.5c0.1-0.5,0.4-1.4,0.7-2.5c0.2-0.7,0.4-1.6,0.6-2.6c0.1-0.5,0.2-1,0.3-1.5c0,0,0,0,0,0
						c0.2-0.8,0.4-1.6,0.5-2.4c0.1-0.3,0.1-0.6,0.2-0.8c0,0,0,0,0,0c0.1-0.6,0.2-1.2,0.3-1.7c0.1-0.6,0.2-1.2,0.3-1.8
						c0.1-0.6,0.2-1.2,0.3-1.8c0,0,0,0,0,0c0.1-0.9,0.2-1.8,0.3-2.7c0-0.3,0-0.6,0.1-0.9c0-0.6,0.1-1.2,0.1-1.7s0-1.2,0-1.8
						c0-1.2,0-2.5-0.1-3.8c-0.1-1.9-0.2-3.8-0.3-5.8c-0.2-2.7-0.4-5.5-0.5-8.3c-0.1-2.1-0.2-4.2-0.3-6.2c0-0.1,0-0.1,0-0.2
						c0-1-0.1-2-0.1-3c0-0.7,0-1.4,0-2c0-0.3,0-0.7,0-1l0-17.2l5,1.2l0.2-0.5c0.1-0.2,0.1-0.7,0.1-0.9c0-0.1,0-0.2,0-0.4
						c0,0,0-0.1,0-0.1c0,0,0-0.1,0-0.1c0-0.1-0.1-0.2-0.1-0.3c-0.1-0.3-0.3-0.5-0.5-0.7c0,0,0,0,0,0c-0.1-0.1-0.2-0.2-0.3-0.2
						l-4.3-1.7l0-15.2c0.1-0.1,0.1-0.2,0.2-0.3c0.2-0.4,0.4-0.8,0.5-1.2c0.1-0.2,0.1-0.4,0.2-0.6c0.2-0.7,0.4-1.4,0.4-2.1
						c0.1-0.4,0.1-0.8,0.1-1.2c0-0.2,0-0.4,0-0.6c0-0.4,0-0.8,0-1.3c0-0.9,0-1.8,0-2.8c0-1.4-0.1-2.8-0.2-4.1
						c-0.1-0.5-0.1-1-0.2-1.5c-0.2-1-0.4-2-0.6-2.9c-0.1-0.2-0.1-0.5-0.2-0.7c-0.2-0.7-0.4-1.3-0.7-2c-0.1-0.2-0.2-0.4-0.2-0.6
						c-0.2-0.4-0.4-0.8-0.5-1.2c-0.1-0.2-0.2-0.4-0.3-0.6c-0.2-0.4-0.4-0.8-0.6-1.1c-0.1-0.2-0.2-0.4-0.3-0.5
						c-0.6-0.9-1.2-1.7-1.9-2.5c-0.5-0.6-1.1-1.2-1.7-1.7c0,0,0,0,0,0c-0.2-0.1-0.3-0.3-0.5-0.4c0,0,0,0,0,0
						c-0.2-0.1-0.3-0.3-0.5-0.4c0,0,0,0,0,0c-0.5-0.4-1-0.7-1.5-1.1c0,0,0,0,0,0c-0.2-0.1-0.3-0.2-0.5-0.3c0,0,0,0,0,0
						c-0.5-0.3-1.1-0.6-1.6-0.9c0,0,0,0,0,0c-0.2-0.1-0.4-0.2-0.6-0.3c0,0,0,0,0,0c-0.2-0.1-0.4-0.2-0.6-0.3c0,0,0,0,0,0
						c-0.4-0.2-0.8-0.3-1.2-0.5c0,0,0,0,0,0c-0.2-0.1-0.4-0.2-0.6-0.2c0,0,0,0,0,0c-0.2-0.1-0.4-0.1-0.6-0.2
						c-0.2-0.1-0.4-0.1-0.6-0.2c0,0,0,0,0,0c-0.2-0.1-0.4-0.1-0.6-0.2c0,0,0,0,0,0c-0.2-0.1-0.4-0.1-0.6-0.2c0,0,0,0,0,0
						c-0.6-0.2-1.3-0.3-1.9-0.5h0c-0.2,0-0.4-0.1-0.7-0.1h0c-1.6-0.3-3.2-0.5-4.9-0.6c0,0,0,0,0,0c-0.2,0-0.5,0-0.7,0c0,0,0,0,0,0
						c-0.5,0-1,0-1.5,0c0,0,0,0,0,0c-0.2,0-0.5,0-0.7,0c-0.1,0-0.2,0-0.3,0c-0.1,0-0.2,0-0.3,0c-0.2,0-0.5,0-0.7,0c0,0,0,0,0,0
						c-0.5,0-1,0-1.5,0c0,0,0,0,0,0c-0.2,0-0.5,0-0.7,0c0,0,0,0,0,0c-1.7,0.1-3.3,0.3-4.9,0.6h0c-0.2,0-0.4,0.1-0.7,0.1h0
						c-0.7,0.1-1.3,0.3-1.9,0.5c0,0,0,0,0,0c-0.2,0.1-0.4,0.1-0.6,0.2c0,0,0,0,0,0c-0.2,0.1-0.4,0.1-0.6,0.2c0,0,0,0,0,0
						c-0.2,0.1-0.4,0.1-0.6,0.2c-0.2,0.1-0.4,0.1-0.6,0.2c0,0,0,0,0,0c-0.2,0.1-0.4,0.1-0.6,0.2c0,0,0,0,0,0
						c-0.4,0.2-0.8,0.3-1.2,0.5c0,0,0,0,0,0c-0.2,0.1-0.4,0.2-0.6,0.3c0,0,0,0,0,0c-0.2,0.1-0.4,0.2-0.6,0.3c0,0,0,0,0,0
						c-0.6,0.3-1.1,0.6-1.6,0.9c0,0,0,0,0,0c-0.2,0.1-0.3,0.2-0.5,0.3c0,0,0,0,0,0c-0.5,0.3-1,0.7-1.5,1.1c0,0,0,0,0,0
						c-0.2,0.1-0.3,0.3-0.5,0.4c0,0,0,0,0,0c-0.2,0.1-0.3,0.3-0.5,0.4c0,0,0,0,0,0c-0.6,0.5-1.2,1.1-1.7,1.7
						c-0.7,0.8-1.3,1.6-1.9,2.5c-0.1,0.2-0.2,0.4-0.3,0.5c-0.2,0.4-0.4,0.7-0.6,1.1c-0.1,0.2-0.2,0.4-0.3,0.6
						c-0.2,0.4-0.4,0.8-0.5,1.2c-0.1,0.2-0.2,0.4-0.2,0.6c-0.2,0.6-0.5,1.3-0.7,2c-0.1,0.2-0.1,0.5-0.2,0.7
						c-0.2,0.9-0.4,1.9-0.6,2.9c-0.1,0.5-0.1,1-0.2,1.5c-0.1,1.3-0.2,2.7-0.2,4.1c0,1,0,1.9,0,2.8c0,0.4,0,0.9,0,1.3
						c0,0.2,0,0.4,0,0.6c0,0.4,0.1,0.8,0.1,1.2c0.1,0.7,0.2,1.4,0.4,2.1c0.1,0.2,0.1,0.4,0.2,0.6c0.1,0.4,0.3,0.8,0.5,1.2
						c0,0.1,0.1,0.2,0.2,0.3l0,15.2l-4.3,1.7c-0.1,0-0.2,0.1-0.3,0.2c0,0,0,0,0,0c-0.2,0.2-0.3,0.4-0.5,0.7c0,0.1-0.1,0.2-0.1,0.3
						c0,0,0,0.1,0,0.1c0,0,0,0.1,0,0.1C143.3,598,143.3,598.1,143.3,598.2L143.3,598.2z"/>
					<path id="carbody" class="st2" d="M143.3,598.2c0,0.2,0,0.7,0.1,0.9l0.2,0.5l4.9-1.2l0,17.2c0,10.8-1.6,23-1.3,32.1
						s3.9,21,3.9,21l0.5,1.9c0.7,2.7,13.4,3.5,23,3.5c0.2,0,0.3,0,0.5,0c0.2,0,0.3,0,0.5,0c9.6,0,22.3-0.9,23-3.5l0.5-1.9
						c0,0,3.6-11.8,3.9-21s-1.3-21.4-1.3-32.1l0-17.2l4.9,1.2l0.2-0.5c0.1-0.2,0.1-0.7,0.1-0.9c0-0.1,0-0.2,0-0.4c0,0,0-0.1,0-0.1
						c0,0,0-0.1,0-0.1c0-0.1-0.1-0.2-0.1-0.3c-0.1-0.3-0.3-0.5-0.5-0.7c0,0,0,0,0,0c-0.1-0.1-0.2-0.2-0.3-0.2l-4.3-1.7l0-15.2
						c1.6-3.3,1.5-6.3,1.5-10.2c0-18.4-11.9-25.9-27.8-25.8c-0.1,0-0.2,0-0.3,0c-0.1,0-0.2,0-0.3,0c-15.8-0.1-27.8,7.4-27.8,25.8
						c0,3.9-0.2,6.9,1.5,10.2l0,15.2l-4.3,1.7c-0.1,0-0.2,0.1-0.3,0.2c0,0,0,0,0,0c-0.2,0.2-0.3,0.4-0.5,0.7c0,0.1-0.1,0.2-0.1,0.3
						c0,0,0,0.1,0,0.1c0,0,0,0.1,0,0.1C143.3,598,143.3,598.1,143.3,598.2L143.3,598.2z"/>
					<path id="path3643" class="st3" d="M193.2,627.2c0,4.6,0.2,9,0.7,13.1c6.7-3.5,4.2-13.5,4.4-28.4c0.1-6.9,0.3-12.4,0.3-16.8
						C195.3,601.7,193.2,613.6,193.2,627.2z"/>
					<path id="path3658" class="st4" d="M193.2,627.2c0,0.4,0,0.9,0,1.3c2.2-0.1,4.2-0.9,5.4-2c0-0.6,0-1.3,0-2
						c-1.1,1.2-3.1,2-5.3,2.2C193.2,626.9,193.2,627,193.2,627.2z"/>
					<path id="path3707" class="st5" d="M189.3,546l0.1,0.7c0.3,3,3.6,5.2,7.5,5.4l1,0.1l-0.7-0.7c-2-2.2-4.5-3.9-7.3-5.2L189.3,546
						z"/>
					<path id="path3715" class="st6" d="M190.8,574.3c0,0-3.1-11-4.4-14.5c-1.4-3.7-5.4-13.6-5.4-13.6s5.9,1.2,8,4.2
						c7.6,10.7,7.4,32.1,7.4,32.1"/>
					
						<linearGradient id="path3757_00000123414278110104097450000007947871659925871521_" gradientUnits="userSpaceOnUse" x1="267.2653" y1="104.6359" x2="264.0694" y2="105.688" gradientTransform="matrix(4.489700e-11 -1 -1 -4.489700e-11 296.7032 828.6771)">
						<stop  offset="0" style="stop-color:#1A1A1A"/>
						<stop  offset="1" style="stop-color:#F30000;stop-opacity:0"/>
					</linearGradient>
					<path id="path3757" style="fill:url(#path3757_00000123414278110104097450000007947871659925871521_);" d="M188,562.4l0.3,0.6
						c0.2-0.1,0.3-0.2,0.5-0.3c1.6-0.7,4,1.5,4.9,3.7c0,0.1,0.1,0.3,0.2,0.5l-0.5-1.9c-1.2-2.4-3.2-3.8-4.7-3.2
						C188.5,561.9,188.2,562.1,188,562.4L188,562.4z"/>
					
						<linearGradient id="path3787_00000061461247535418269030000001400001979931379088_" gradientUnits="userSpaceOnUse" x1="258.5895" y1="406.9042" x2="256.9669" y2="406.8953" gradientTransform="matrix(4.489700e-11 -1 -1 -4.489700e-11 597.2615 815.548)">
						<stop  offset="0" style="stop-color:#1A1A1A"/>
						<stop  offset="1" style="stop-color:#F30000;stop-opacity:0"/>
					</linearGradient>
					<path id="path3787" style="fill:url(#path3787_00000061461247535418269030000001400001979931379088_);" d="M187.4,561.2
						l0.3,0.6c0.2-0.1,0.3-0.2,0.5-0.3c1.6-0.7,4,1.5,4.9,3.7c0,0.1,0.1,0.3,0.2,0.5l-0.5-1.9c-1.2-2.4-3.2-3.8-4.7-3.2
						C187.9,560.7,187.6,560.9,187.4,561.2L187.4,561.2z"/>
					
						<linearGradient id="path3752_00000081624423656402837310000005030028360945415559_" gradientUnits="userSpaceOnUse" x1="252.1076" y1="405.1839" x2="243.2666" y2="405.9554" gradientTransform="matrix(4.489700e-11 -1 -1 -4.489700e-11 595.8474 809.3609)">
						<stop  offset="0" style="stop-color:#1A1A1A"/>
						<stop  offset="1" style="stop-color:#F30000;stop-opacity:0"/>
					</linearGradient>
					<path id="path3752" style="fill:url(#path3752_00000081624423656402837310000005030028360945415559_);" d="M187.2,560.4
						l0.3,0.6c0.2-0.1,0.3-0.2,0.5-0.3c1.6-0.7,4,1.5,4.9,3.7c0,0.1,0.1,0.3,0.2,0.5l-0.5-1.9c-1.2-2.4-3.2-3.8-4.7-3.2
						C187.7,559.9,187.4,560.1,187.2,560.4L187.2,560.4z"/>
					
						<linearGradient id="path3735_00000177464166945520665010000008409852231330225307_" gradientUnits="userSpaceOnUse" x1="258.3789" y1="403.3065" x2="256.5212" y2="404.276" gradientTransform="matrix(4.489700e-11 -1 -1 -4.489700e-11 597.2615 815.548)">
						<stop  offset="0" style="stop-color:#1A1A1A"/>
						<stop  offset="1" style="stop-color:#F30000;stop-opacity:0"/>
					</linearGradient>
					<path id="path3735" style="fill:url(#path3735_00000177464166945520665010000008409852231330225307_);" d="M186.6,558l0.3,0.9
						c0.2-0.1,0.5-0.2,0.8-0.3c2.2-0.4,4.7,2.9,5.3,5.9c0.1,0.5,1.2,4,1.2,4.4h0.6l-1.7-5.7c-0.8-3.6-3.1-6.2-5.3-5.8
						C187.3,557.6,186.9,557.7,186.6,558L186.6,558z"/>
					
						<linearGradient id="path3783_00000109025393241348384050000010033042968962240912_" gradientUnits="userSpaceOnUse" x1="255.3414" y1="402.8569" x2="249.1702" y2="409.8906" gradientTransform="matrix(4.489700e-11 -1 -1 -4.489700e-11 597.2615 815.548)">
						<stop  offset="0" style="stop-color:#1A1A1A"/>
						<stop  offset="1" style="stop-color:#F30000;stop-opacity:0"/>
					</linearGradient>
					<path id="path3783" style="fill:url(#path3783_00000109025393241348384050000010033042968962240912_);" d="M186.6,558l0.3,0.9
						c0.2-0.1,0.5-0.2,0.8-0.3c2.2-0.4,4.7,2.9,5.3,5.9c0.1,0.5,1.2,4,1.2,4.4h0.6l-1.7-5.7c-0.8-3.6-3.1-6.2-5.3-5.8
						C187.3,557.6,186.9,557.7,186.6,558L186.6,558z"/>
					
						<linearGradient id="path3799_00000129175454109086351310000010342333420572504216_" gradientUnits="userSpaceOnUse" x1="298.618" y1="388.1353" x2="287.2201" y2="387.9625" gradientTransform="matrix(4.010700e-11 -0.8933 -0.8933 -4.010700e-11 537.961 826.7468)">
						<stop  offset="0" style="stop-color:#1A1A1A"/>
						<stop  offset="1" style="stop-color:#F30000;stop-opacity:0"/>
					</linearGradient>
					<path id="path3799" style="fill:url(#path3799_00000129175454109086351310000010342333420572504216_);" d="M188.6,564.2
						l0.3,0.5c0.1-0.1,0.3-0.2,0.5-0.3c1.4-0.6,3.6,1.3,4.4,3.3c0,0.1,0.1,0.2,0.2,0.4l-0.5-1.7c-1-2.1-2.8-3.4-4.2-2.8
						C189.1,563.8,188.8,563.9,188.6,564.2L188.6,564.2z"/>
					
						<linearGradient id="path3803_00000129187406993250186510000007369880411542584199_" gradientUnits="userSpaceOnUse" x1="310.7976" y1="391.1378" x2="301.4479" y2="391.6897" gradientTransform="matrix(4.010700e-11 -0.8933 -0.8933 -4.010700e-11 541.5342 840.5542)">
						<stop  offset="0" style="stop-color:#1A1A1A"/>
						<stop  offset="1" style="stop-color:#F30000;stop-opacity:0"/>
					</linearGradient>
					<path id="path3803" style="fill:url(#path3803_00000129187406993250186510000007369880411542584199_);" d="M189.1,566.1
						l0.3,0.5c0.1-0.1,0.3-0.2,0.5-0.3c1.4-0.6,3.6,1.3,4.4,3.3c0,0.1,0.1,0.2,0.2,0.4l-0.5-1.7c-1-2.1-2.8-3.4-4.2-2.8
						C189.6,565.7,189.3,565.8,189.1,566.1L189.1,566.1z"/>
					
						<linearGradient id="rect3861_00000049222861640247442520000005304128967366476452_" gradientUnits="userSpaceOnUse" x1="184.6656" y1="196.0388" x2="181.3397" y2="196.7923" gradientTransform="matrix(0.138 -0.9904 -0.9904 -0.138 362.9903 857.5206)">
						<stop  offset="0" style="stop-color:#1A1A1A"/>
						<stop  offset="1" style="stop-color:#F30000;stop-opacity:0"/>
					</linearGradient>
					<path id="rect3861" style="fill:url(#rect3861_00000049222861640247442520000005304128967366476452_);" d="M191.8,650.3
						c-0.3-1.1-0.2-2.1,0.8-2.7l2.5,0.3c0.9,0.9,0.7,1.9,0,2.8L191.8,650.3L191.8,650.3z"/>
					
						<linearGradient id="path3864_00000007425908846820351830000005748250482547769237_" gradientUnits="userSpaceOnUse" x1="177.0473" y1="196.2643" x2="173.9739" y2="196.3209" gradientTransform="matrix(0.138 -0.9904 -0.9904 -0.138 364.2725 847.2582)">
						<stop  offset="0" style="stop-color:#1A1A1A"/>
						<stop  offset="1" style="stop-color:#F30000;stop-opacity:0"/>
					</linearGradient>
					<path id="path3864" style="fill:url(#path3864_00000007425908846820351830000005748250482547769237_);" d="M192.3,647.5
						c-0.2-1.1-0.1-2.1,0.8-2.6l2.4,0.3c0.4,0.9,0.7,1.8,0,2.7L192.3,647.5L192.3,647.5z"/>
					<path id="path4025" class="st16" d="M192.8,627.2c0,4.6,0.2,9,0.7,13.1l0.1,0.5l0.4-0.2c1.7-0.9,2.9-2.3,3.6-4
						c0.7-1.7,1.1-3.8,1.2-6.2c0.2-4.8-0.4-11-0.3-18.4c0.1-6.9,0.3-12.4,0.3-16.8l-0.7-0.2C195,601.6,192.8,613.5,192.8,627.2z
						 M193.5,627.2c0-12.6,1.9-23.7,4.7-30.4c-0.1,4.1-0.2,9-0.3,15.1c-0.1,7.4,0.5,13.7,0.3,18.4c-0.1,2.4-0.4,4.4-1.1,6
						c-0.6,1.4-1.5,2.6-2.9,3.4C193.7,635.8,193.5,631.6,193.5,627.2z"/>
					<path id="rect2864" class="st17" d="M159,646.5l1.7,10.7c0.6,3.7,6.7,6.8,14.5,7c7.7-0.3,13.9-3.3,14.5-7l1.7-10.7
						c0-1.8-1.5-3.3-3.3-3.3h-25.8C160.4,643.2,159,644.7,159,646.5L159,646.5z"/>
					<path id="path3703" class="st17" d="M154.2,587c0,0.4,0,0.8,0.1,1.2c0,0,0,0,0,0l1.7,8.8c0.9,2.4,2,4.4,4.4,4.4h29.3
						c2.4,0,3.5-2,4.4-4.4l1.7-8.8c0,0,0,0,0,0c0.1-0.4,0.1-0.8,0.1-1.2c0-6.3-7.9-11.3-20.9-11.4
						C162.2,575.6,154.2,580.7,154.2,587L154.2,587z"/>
					<path id="path4157" class="st3" d="M157.1,627.2c0,4.6-0.2,9-0.7,13.1c-6.7-3.5-4.2-13.5-4.4-28.4c-0.1-6.9-0.3-12.4-0.3-16.8
						C155,601.7,157.1,613.6,157.1,627.2z"/>
					<path id="path4159" class="st4" d="M157.1,627.2c0,0.4,0,0.9,0,1.3c-2.2-0.1-4.2-0.9-5.4-2c0-0.6,0-1.3,0-2
						c1.1,1.2,3.1,2,5.3,2.2C157.1,626.9,157.1,627,157.1,627.2z"/>
					<path id="path4161" class="st5" d="M161,546l-0.1,0.7c-0.3,3-3.6,5.2-7.5,5.4l-1,0.1l0.7-0.7c2-2.2,4.5-3.9,7.3-5.2L161,546z"
						/>
					<path id="path4163" class="st6" d="M159.4,574.3c0,0,3.1-11,4.4-14.5c1.4-3.7,5.4-13.6,5.4-13.6s-5.9,1.2-8,4.2
						c-7.6,10.7-7.4,32.1-7.4,32.1"/>
					
						<linearGradient id="path4165_00000106857084059950127170000002275285444014354580_" gradientUnits="userSpaceOnUse" x1="267.2653" y1="712.2183" x2="264.0694" y2="713.2704" gradientTransform="matrix(4.489700e-11 -1 1 4.489700e-11 -553.9934 828.6771)">
						<stop  offset="0" style="stop-color:#1A1A1A"/>
						<stop  offset="1" style="stop-color:#F30000;stop-opacity:0"/>
					</linearGradient>
					<path id="path4165" style="fill:url(#path4165_00000106857084059950127170000002275285444014354580_);" d="M162.3,562.4
						L162,563c-0.2-0.1-0.3-0.2-0.5-0.3c-1.6-0.7-4,1.5-4.9,3.7c0,0.1-0.1,0.3-0.2,0.5l0.5-1.9c1.2-2.4,3.2-3.8,4.7-3.2
						C161.8,561.9,162.1,562.1,162.3,562.4L162.3,562.4z"/>
					
						<linearGradient id="path4167_00000163773029385227754900000005796599528098748075_" gradientUnits="userSpaceOnUse" x1="258.5895" y1="1014.4865" x2="256.9669" y2="1014.4776" gradientTransform="matrix(4.489700e-11 -1 1 4.489700e-11 -854.5516 815.548)">
						<stop  offset="0" style="stop-color:#1A1A1A"/>
						<stop  offset="1" style="stop-color:#F30000;stop-opacity:0"/>
					</linearGradient>
					<path id="path4167" style="fill:url(#path4167_00000163773029385227754900000005796599528098748075_);" d="M162.9,561.2
						l-0.3,0.6c-0.2-0.1-0.3-0.2-0.5-0.3c-1.6-0.7-4,1.5-4.9,3.7c0,0.1-0.1,0.3-0.2,0.5l0.5-1.9c1.2-2.4,3.2-3.8,4.7-3.2
						C162.4,560.7,162.7,560.9,162.9,561.2L162.9,561.2z"/>
					
						<linearGradient id="path4169_00000183932179840903380400000016973184870607908744_" gradientUnits="userSpaceOnUse" x1="252.1076" y1="1012.7662" x2="243.2666" y2="1013.5377" gradientTransform="matrix(4.489700e-11 -1 1 4.489700e-11 -853.1375 809.3609)">
						<stop  offset="0" style="stop-color:#1A1A1A"/>
						<stop  offset="1" style="stop-color:#F30000;stop-opacity:0"/>
					</linearGradient>
					<path id="path4169" style="fill:url(#path4169_00000183932179840903380400000016973184870607908744_);" d="M163.1,560.4
						l-0.3,0.6c-0.2-0.1-0.3-0.2-0.5-0.3c-1.6-0.7-4,1.5-4.9,3.7c0,0.1-0.1,0.3-0.2,0.5l0.5-1.9c1.2-2.4,3.2-3.8,4.7-3.2
						C162.6,559.9,162.9,560.1,163.1,560.4L163.1,560.4z"/>
					
						<linearGradient id="path4171_00000090270256892157685870000000311651520153018046_" gradientUnits="userSpaceOnUse" x1="258.3789" y1="1010.8888" x2="256.5212" y2="1011.8583" gradientTransform="matrix(4.489700e-11 -1 1 4.489700e-11 -854.5516 815.548)">
						<stop  offset="0" style="stop-color:#1A1A1A"/>
						<stop  offset="1" style="stop-color:#F30000;stop-opacity:0"/>
					</linearGradient>
					<path id="path4171" style="fill:url(#path4171_00000090270256892157685870000000311651520153018046_);" d="M163.7,558l-0.3,0.9
						c-0.2-0.1-0.5-0.2-0.8-0.3c-2.2-0.4-4.7,2.9-5.3,5.9c-0.1,0.5-1.2,4-1.2,4.4h-0.6l1.7-5.7c0.8-3.6,3.1-6.2,5.3-5.8
						C163,557.6,163.4,557.7,163.7,558L163.7,558z"/>
					
						<linearGradient id="path4173_00000047777348365313897500000012170126701830005923_" gradientUnits="userSpaceOnUse" x1="255.3414" y1="1010.4392" x2="249.1703" y2="1017.4728" gradientTransform="matrix(4.489700e-11 -1 1 4.489700e-11 -854.5516 815.548)">
						<stop  offset="0" style="stop-color:#1A1A1A"/>
						<stop  offset="1" style="stop-color:#F30000;stop-opacity:0"/>
					</linearGradient>
					<path id="path4173" style="fill:url(#path4173_00000047777348365313897500000012170126701830005923_);" d="M163.7,558l-0.3,0.9
						c-0.2-0.1-0.5-0.2-0.8-0.3c-2.2-0.4-4.7,2.9-5.3,5.9c-0.1,0.5-1.2,4-1.2,4.4h-0.6l1.7-5.7c0.8-3.6,3.1-6.2,5.3-5.8
						C163,557.6,163.4,557.7,163.7,558L163.7,558z"/>
					
						<linearGradient id="path4175_00000013154459910145378400000011252819853810472366_" gradientUnits="userSpaceOnUse" x1="298.618" y1="1068.2732" x2="287.2201" y2="1068.1005" gradientTransform="matrix(4.010700e-11 -0.8933 0.8933 4.010700e-11 -795.2511 826.7468)">
						<stop  offset="0" style="stop-color:#1A1A1A"/>
						<stop  offset="1" style="stop-color:#F30000;stop-opacity:0"/>
					</linearGradient>
					<path id="path4175" style="fill:url(#path4175_00000013154459910145378400000011252819853810472366_);" d="M161.7,564.2
						l-0.3,0.5c-0.1-0.1-0.3-0.2-0.5-0.3c-1.4-0.6-3.6,1.3-4.4,3.3c0,0.1-0.1,0.2-0.2,0.4l0.5-1.7c1-2.1,2.8-3.4,4.2-2.8
						C161.2,563.8,161.5,563.9,161.7,564.2L161.7,564.2z"/>
					
						<linearGradient id="path4177_00000136408877354161018370000016850128554715302798_" gradientUnits="userSpaceOnUse" x1="310.7976" y1="1071.2758" x2="301.4479" y2="1071.8278" gradientTransform="matrix(4.010700e-11 -0.8933 0.8933 4.010700e-11 -798.8245 840.5542)">
						<stop  offset="0" style="stop-color:#1A1A1A"/>
						<stop  offset="1" style="stop-color:#F30000;stop-opacity:0"/>
					</linearGradient>
					<path id="path4177" style="fill:url(#path4177_00000136408877354161018370000016850128554715302798_);" d="M161.2,566.1
						l-0.3,0.5c-0.1-0.1-0.3-0.2-0.5-0.3c-1.4-0.6-3.6,1.3-4.4,3.3c0,0.1-0.1,0.2-0.2,0.4l0.5-1.7c1-2.1,2.8-3.4,4.2-2.8
						C160.7,565.7,161,565.8,161.2,566.1L161.2,566.1z"/>
					
						<linearGradient id="path4179_00000087398694326911167730000001981427793446690237_" gradientUnits="userSpaceOnUse" x1="100.8272" y1="797.8091" x2="97.5013" y2="798.5627" gradientTransform="matrix(-0.138 -0.9904 0.9904 -0.138 -620.2805 857.5206)">
						<stop  offset="0" style="stop-color:#1A1A1A"/>
						<stop  offset="1" style="stop-color:#F30000;stop-opacity:0"/>
					</linearGradient>
					<path id="path4179" style="fill:url(#path4179_00000087398694326911167730000001981427793446690237_);" d="M158.4,650.3
						c0.3-1.1,0.2-2.1-0.8-2.7l-2.5,0.3c-0.9,0.9-0.7,1.9,0,2.8L158.4,650.3L158.4,650.3z"/>
					
						<linearGradient id="path4181_00000150060560692541607710000009632065970087753380_" gradientUnits="userSpaceOnUse" x1="93.209" y1="798.0345" x2="90.1355" y2="798.0911" gradientTransform="matrix(-0.138 -0.9904 0.9904 -0.138 -621.5626 847.2582)">
						<stop  offset="0" style="stop-color:#1A1A1A"/>
						<stop  offset="1" style="stop-color:#F30000;stop-opacity:0"/>
					</linearGradient>
					<path id="path4181" style="fill:url(#path4181_00000150060560692541607710000009632065970087753380_);" d="M158,647.5
						c0.2-1.1,0.1-2.1-0.8-2.6l-2.4,0.3c-0.4,0.9-0.7,1.8,0,2.7L158,647.5L158,647.5z"/>
					<path id="path4183" class="st16" d="M157.5,627.2c0,4.6-0.2,9-0.7,13.1l-0.1,0.5l-0.4-0.2c-1.7-0.9-2.9-2.3-3.6-4
						c-0.7-1.7-1.1-3.8-1.2-6.2c-0.2-4.8,0.4-11,0.3-18.4c-0.1-6.9-0.3-12.4-0.3-16.8l0.7-0.2C155.3,601.6,157.5,613.5,157.5,627.2z
						 M156.8,627.2c0-12.6-1.9-23.7-4.7-30.4c0.1,4.1,0.2,9,0.3,15.1c0.1,7.4-0.5,13.7-0.3,18.4c0.1,2.4,0.4,4.4,1.1,6
						c0.6,1.4,1.5,2.6,2.9,3.4C156.6,635.8,156.8,631.6,156.8,627.2z"/>
				</g>
			</g>
			<g>
				<line class="st27" x1="122.2" y1="231.9" x2="122.2" y2="12.5"/>
				<line class="st27" x1="231.9" y1="122.2" x2="12.5" y2="122.2"/>
			</g>
			<g>
				<g>
					<line class="st28" x1="122.2" y1="122.2" x2="171.7" y2="122.2"/>
					<g>
						<polygon class="st29" points="167.8,135.4 190.6,122.2 167.8,109 						"/>
					</g>
				</g>
			</g>
			<g>
				<g>
					<line class="st30" x1="121.8" y1="122.2" x2="121.8" y2="72.7"/>
					<g>
						<polygon class="st31" points="135,76.6 121.8,53.8 108.6,76.6 						"/>
					</g>
				</g>
			</g>
		</g>
		<rect x="151.4" y="31.8" class="st32" width="78" height="55.4"/>
		<text transform="matrix(1 0 0 1 169.5543 42.4192)"><tspan x="0" y="0" class="st33 st34">Object</tspan><tspan x="-17.2" y="18" class="st33 st34">Coordinates</tspan></text>
	</g>
	<g>
		<path class="st35" d="M214.3,240.6H30.2c-14.6,0-26.4-11.8-26.4-26.4V30.2c0-14.6,11.8-26.4,26.4-26.4h184.1
			c14.6,0,26.4,11.8,26.4,26.4v184.1C240.6,228.8,228.8,240.6,214.3,240.6C214.3,240.6,228.8,240.6,214.3,240.6z"/>
	</g>
</g>
</svg>
