<?xml version="1.0" encoding="utf-8"?>
<!-- Generator: Adobe Illustrator 26.1.0, SVG Export Plug-In . SVG Version: 6.00 Build 0)  -->
<svg version="1.1" id="Layer_1" xmlns="http://www.w3.org/2000/svg" xmlns:xlink="http://www.w3.org/1999/xlink" x="0px" y="0px"
	 viewBox="0 0 219.4 219.4" style="enable-background:new 0 0 219.4 219.4;" xml:space="preserve">
<style type="text/css">
	.st0{fill-opacity:0.9961;stroke:#191919;stroke-width:0.75;}
	.st1{fill:#CCCCCC;fill-opacity:0.9961;}
	.st2{opacity:0.9;fill:#262626;fill-opacity:0.9961;enable-background:new    ;}
	.st3{opacity:0.5;fill-opacity:0.9961;enable-background:new    ;}
	.st4{fill:#212121;stroke:#191919;stroke-width:0.75;}
	
		.st5{opacity:0.5;fill:none;stroke:#292929;stroke-width:0.75;stroke-linecap:round;stroke-linejoin:round;enable-background:new    ;}
	.st6{fill:url(#path3757_00000124160843551698437850000000465580801750003603_);}
	.st7{fill:url(#path3787_00000144325740742470979290000010486213045448083103_);}
	.st8{fill:url(#path3752_00000023241201219207525140000001767815193881812385_);}
	.st9{fill:url(#path3735_00000176735962204602461090000011830458883516314501_);}
	.st10{fill:url(#path3783_00000134948317724622941640000016308408922388887217_);}
	.st11{fill:url(#path3799_00000098193531609660476640000016657803074171016844_);}
	.st12{fill:url(#path3803_00000130624239141166496280000015760063445229340565_);}
	.st13{fill:url(#rect3861_00000081631543920720292810000013931902466282911166_);}
	.st14{fill:url(#path3864_00000007403737001611669120000010347732583727250093_);}
	.st15{opacity:0.9;fill:#191919;enable-background:new    ;}
	.st16{opacity:0.9;fill:#262626;fill-opacity:0.9961;stroke:#191919;stroke-width:0.75;enable-background:new    ;}
	.st17{fill:url(#path4165_00000004505749984019211730000008383880601092332958_);}
	.st18{fill:url(#path4167_00000077322324200435443090000017510245753533561010_);}
	.st19{fill:url(#path4169_00000024687168122853293270000006134779795620963229_);}
	.st20{fill:url(#path4171_00000047054840727487027620000011127243693095872159_);}
	.st21{fill:url(#path4173_00000079449540300551861200000014239331282125934010_);}
	.st22{fill:url(#path4175_00000095320323246097423620000010274298726475164317_);}
	.st23{fill:url(#path4177_00000160192918985025935630000016318443682616841105_);}
	.st24{fill:url(#path4179_00000147202591453283127900000012827318961726176435_);}
	.st25{fill:url(#path4181_00000009555587374358053460000008877310636497466254_);}
	.st26{fill:none;stroke:#000000;stroke-width:4;stroke-miterlimit:10;}
	.st27{fill:none;stroke:#FF0000;stroke-width:8;stroke-linecap:round;stroke-linejoin:round;}
	.st28{fill:#FF0000;}
	.st29{fill:none;stroke:#00FF00;stroke-width:8;stroke-linecap:round;stroke-linejoin:round;}
	.st30{fill:#00FF00;}
</style>
<g>
	<g id="layer1" transform="translate(-52.937117,-486.6931)">
		<g id="g3890">
			<path id="path3855" class="st0" d="M130.8,585.7c0,0.2,0,0.7,0.1,0.9l0.2,0.5l5-1.2l0,17.2c0,0.3,0,0.7,0,1c0,0.7,0,1.4,0,2
				c0,1-0.1,2-0.1,3c0,0.1,0,0.1,0,0.2c-0.1,2.1-0.2,4.1-0.3,6.2c-0.2,2.8-0.4,5.6-0.5,8.3c-0.1,2-0.2,4-0.3,5.8
				c0,1.3-0.1,2.5-0.1,3.8c0,0.6,0,1.2,0,1.8c0,0.6,0,1.2,0.1,1.7c0,0.3,0,0.6,0.1,0.9c0.1,0.9,0.2,1.8,0.3,2.7c0,0,0,0,0,0
				c0.1,0.6,0.2,1.2,0.3,1.8c0.1,0.6,0.2,1.2,0.3,1.8c0.1,0.6,0.2,1.2,0.3,1.7c0,0,0,0,0,0c0.1,0.3,0.1,0.6,0.2,0.8
				c0.2,0.8,0.3,1.6,0.5,2.4c0,0,0,0,0,0c0.1,0.5,0.2,1,0.3,1.5c0.2,0.9,0.4,1.8,0.6,2.6c0.3,1.1,0.5,2,0.7,2.5
				c0.1,0.3,0.2,0.5,0.2,0.5l0.5,1.9c0,0.1,0.1,0.2,0.2,0.4c0,0,0.1,0.1,0.1,0.1c0.1,0.2,0.3,0.3,0.5,0.4c0,0,0,0,0,0
				c0.1,0.1,0.2,0.1,0.4,0.2c0,0,0,0,0,0c0.1,0.1,0.3,0.1,0.4,0.2c0,0,0,0,0,0c1.2,0.5,2.9,0.9,5,1.2c0,0,0,0,0,0c0,0,0.1,0,0.1,0
				c0.5,0.1,0.9,0.1,1.4,0.2c0,0,0.1,0,0.1,0c0.6,0.1,1.1,0.1,1.7,0.2c0,0,0,0,0,0c0.3,0,0.6,0.1,0.9,0.1c0,0,0,0,0,0
				c0.3,0,0.6,0.1,0.9,0.1c0,0,0,0,0,0c0.6,0,1.2,0.1,1.9,0.1c0,0,0,0,0,0c1.9,0.1,3.8,0.2,5.7,0.2c0,0,0,0,0,0c1.3,0,2.5,0,3.7,0
				c0.1,0,0.3,0,0.4,0c0.1,0,0.3,0,0.4,0c1.2,0,2.4,0,3.7,0c0,0,0,0,0,0c1.9,0,3.8-0.1,5.7-0.2c0,0,0,0,0,0c0.6,0,1.3-0.1,1.9-0.1
				c0,0,0,0,0,0c0.3,0,0.6-0.1,0.9-0.1c0,0,0,0,0,0c0.3,0,0.6-0.1,0.9-0.1c0,0,0,0,0,0c0.6-0.1,1.2-0.1,1.7-0.2c0,0,0.1,0,0.1,0
				c0.5-0.1,1-0.1,1.4-0.2c0,0,0.1,0,0.1,0c0,0,0,0,0,0c2.1-0.3,3.8-0.7,5-1.2c0,0,0,0,0,0c0.1-0.1,0.3-0.1,0.4-0.2c0,0,0,0,0,0
				c0.1-0.1,0.2-0.1,0.4-0.2c0,0,0,0,0,0c0.2-0.1,0.4-0.3,0.5-0.4c0,0,0.1-0.1,0.1-0.1c0.1-0.1,0.1-0.2,0.2-0.4l0.5-1.9
				c0,0,0.1-0.2,0.2-0.5c0.1-0.5,0.4-1.4,0.7-2.5c0.2-0.7,0.4-1.6,0.6-2.6c0.1-0.5,0.2-1,0.3-1.5c0,0,0,0,0,0
				c0.2-0.8,0.4-1.6,0.5-2.4c0.1-0.3,0.1-0.6,0.2-0.8c0,0,0,0,0,0c0.1-0.6,0.2-1.2,0.3-1.7c0.1-0.6,0.2-1.2,0.3-1.8
				c0.1-0.6,0.2-1.2,0.3-1.8c0,0,0,0,0,0c0.1-0.9,0.2-1.8,0.3-2.7c0-0.3,0-0.6,0.1-0.9c0-0.6,0.1-1.2,0.1-1.7s0-1.2,0-1.8
				c0-1.2,0-2.5-0.1-3.8c-0.1-1.9-0.2-3.8-0.3-5.8c-0.2-2.7-0.4-5.5-0.5-8.3c-0.1-2.1-0.2-4.2-0.3-6.2c0-0.1,0-0.1,0-0.2
				c0-1-0.1-2-0.1-3c0-0.7,0-1.4,0-2c0-0.3,0-0.7,0-1l0-17.2l5,1.2l0.2-0.5c0.1-0.2,0.1-0.7,0.1-0.9c0-0.1,0-0.2,0-0.4
				c0,0,0-0.1,0-0.1c0,0,0-0.1,0-0.1c0-0.1-0.1-0.2-0.1-0.3c-0.1-0.3-0.3-0.5-0.5-0.7c0,0,0,0,0,0c-0.1-0.1-0.2-0.2-0.3-0.2
				l-4.3-1.7l0-15.2c0.1-0.1,0.1-0.2,0.2-0.3c0.2-0.4,0.4-0.8,0.5-1.2c0.1-0.2,0.1-0.4,0.2-0.6c0.2-0.7,0.4-1.4,0.4-2.1
				c0.1-0.4,0.1-0.8,0.1-1.2c0-0.2,0-0.4,0-0.6c0-0.4,0-0.8,0-1.3c0-0.9,0-1.8,0-2.8c0-1.4-0.1-2.8-0.2-4.1c-0.1-0.5-0.1-1-0.2-1.5
				c-0.2-1-0.4-2-0.6-2.9c-0.1-0.2-0.1-0.5-0.2-0.7c-0.2-0.7-0.4-1.3-0.7-2c-0.1-0.2-0.2-0.4-0.2-0.6c-0.2-0.4-0.4-0.8-0.5-1.2
				c-0.1-0.2-0.2-0.4-0.3-0.6c-0.2-0.4-0.4-0.8-0.6-1.1c-0.1-0.2-0.2-0.4-0.3-0.5c-0.6-0.9-1.2-1.7-1.9-2.5
				c-0.5-0.6-1.1-1.2-1.7-1.7c0,0,0,0,0,0c-0.2-0.1-0.3-0.3-0.5-0.4c0,0,0,0,0,0c-0.2-0.1-0.3-0.3-0.5-0.4c0,0,0,0,0,0
				c-0.5-0.4-1-0.7-1.5-1.1c0,0,0,0,0,0c-0.2-0.1-0.3-0.2-0.5-0.3c0,0,0,0,0,0c-0.5-0.3-1.1-0.6-1.6-0.9c0,0,0,0,0,0
				c-0.2-0.1-0.4-0.2-0.6-0.3c0,0,0,0,0,0c-0.2-0.1-0.4-0.2-0.6-0.3c0,0,0,0,0,0c-0.4-0.2-0.8-0.3-1.2-0.5c0,0,0,0,0,0
				c-0.2-0.1-0.4-0.2-0.6-0.2c0,0,0,0,0,0c-0.2-0.1-0.4-0.1-0.6-0.2c-0.2-0.1-0.4-0.1-0.6-0.2c0,0,0,0,0,0c-0.2-0.1-0.4-0.1-0.6-0.2
				c0,0,0,0,0,0c-0.2-0.1-0.4-0.1-0.6-0.2c0,0,0,0,0,0c-0.6-0.2-1.3-0.3-1.9-0.5h0c-0.2,0-0.4-0.1-0.7-0.1h0
				c-1.6-0.3-3.2-0.5-4.9-0.6c0,0,0,0,0,0c-0.2,0-0.5,0-0.7,0c0,0,0,0,0,0c-0.5,0-1,0-1.5,0c0,0,0,0,0,0c-0.2,0-0.5,0-0.7,0
				c-0.1,0-0.2,0-0.3,0c-0.1,0-0.2,0-0.3,0c-0.2,0-0.5,0-0.7,0c0,0,0,0,0,0c-0.5,0-1,0-1.5,0c0,0,0,0,0,0c-0.2,0-0.5,0-0.7,0
				c0,0,0,0,0,0c-1.7,0.1-3.3,0.3-4.9,0.6h0c-0.2,0-0.4,0.1-0.7,0.1h0c-0.7,0.1-1.3,0.3-1.9,0.5c0,0,0,0,0,0
				c-0.2,0.1-0.4,0.1-0.6,0.2c0,0,0,0,0,0c-0.2,0.1-0.4,0.1-0.6,0.2c0,0,0,0,0,0c-0.2,0.1-0.4,0.1-0.6,0.2c-0.2,0.1-0.4,0.1-0.6,0.2
				c0,0,0,0,0,0c-0.2,0.1-0.4,0.1-0.6,0.2c0,0,0,0,0,0c-0.4,0.2-0.8,0.3-1.2,0.5c0,0,0,0,0,0c-0.2,0.1-0.4,0.2-0.6,0.3c0,0,0,0,0,0
				c-0.2,0.1-0.4,0.2-0.6,0.3c0,0,0,0,0,0c-0.6,0.3-1.1,0.6-1.6,0.9c0,0,0,0,0,0c-0.2,0.1-0.3,0.2-0.5,0.3c0,0,0,0,0,0
				c-0.5,0.3-1,0.7-1.5,1.1c0,0,0,0,0,0c-0.2,0.1-0.3,0.3-0.5,0.4c0,0,0,0,0,0c-0.2,0.1-0.3,0.3-0.5,0.4c0,0,0,0,0,0
				c-0.6,0.5-1.2,1.1-1.7,1.7c-0.7,0.8-1.3,1.6-1.9,2.5c-0.1,0.2-0.2,0.4-0.3,0.5c-0.2,0.4-0.4,0.7-0.6,1.1
				c-0.1,0.2-0.2,0.4-0.3,0.6c-0.2,0.4-0.4,0.8-0.5,1.2c-0.1,0.2-0.2,0.4-0.2,0.6c-0.2,0.6-0.5,1.3-0.7,2c-0.1,0.2-0.1,0.5-0.2,0.7
				c-0.2,0.9-0.4,1.9-0.6,2.9c-0.1,0.5-0.1,1-0.2,1.5c-0.1,1.3-0.2,2.7-0.2,4.1c0,1,0,1.9,0,2.8c0,0.4,0,0.9,0,1.3
				c0,0.2,0,0.4,0,0.6c0,0.4,0.1,0.8,0.1,1.2c0.1,0.7,0.2,1.4,0.4,2.1c0.1,0.2,0.1,0.4,0.2,0.6c0.1,0.4,0.3,0.8,0.5,1.2
				c0,0.1,0.1,0.2,0.2,0.3l0,15.2l-4.3,1.7c-0.1,0-0.2,0.1-0.3,0.2c0,0,0,0,0,0c-0.2,0.2-0.3,0.4-0.5,0.7c0,0.1-0.1,0.2-0.1,0.3
				c0,0,0,0.1,0,0.1c0,0,0,0.1,0,0.1C130.8,585.5,130.8,585.6,130.8,585.7L130.8,585.7z"/>
			<path id="carbody" class="st1" d="M130.8,585.7c0,0.2,0,0.7,0.1,0.9l0.2,0.5l4.9-1.2l0,17.2c0,10.8-1.6,23-1.3,32.1
				c0.3,9.2,3.9,21,3.9,21l0.5,1.9c0.7,2.7,13.4,3.5,23,3.5c0.2,0,0.3,0,0.5,0c0.2,0,0.3,0,0.5,0c9.6,0,22.3-0.9,23-3.5l0.5-1.9
				c0,0,3.6-11.8,3.9-21c0.3-9.2-1.3-21.4-1.3-32.1l0-17.2l4.9,1.2l0.2-0.5c0.1-0.2,0.1-0.7,0.1-0.9c0-0.1,0-0.2,0-0.4
				c0,0,0-0.1,0-0.1c0,0,0-0.1,0-0.1c0-0.1-0.1-0.2-0.1-0.3c-0.1-0.3-0.3-0.5-0.5-0.7c0,0,0,0,0,0c-0.1-0.1-0.2-0.2-0.3-0.2
				l-4.3-1.7l0-15.2c1.6-3.3,1.5-6.3,1.5-10.2c0-18.4-11.9-25.9-27.8-25.8c-0.1,0-0.2,0-0.3,0c-0.1,0-0.2,0-0.3,0
				c-15.8-0.1-27.8,7.4-27.8,25.8c0,3.9-0.2,6.9,1.5,10.2l0,15.2l-4.3,1.7c-0.1,0-0.2,0.1-0.3,0.2c0,0,0,0,0,0
				c-0.2,0.2-0.3,0.4-0.5,0.7c0,0.1-0.1,0.2-0.1,0.3c0,0,0,0.1,0,0.1c0,0,0,0.1,0,0.1C130.8,585.5,130.8,585.6,130.8,585.7
				L130.8,585.7z"/>
			<path id="path3643" class="st2" d="M180.7,614.7c0,4.6,0.2,9,0.7,13.1c6.7-3.5,4.2-13.5,4.4-28.4c0.1-6.9,0.3-12.4,0.3-16.8
				C182.8,589.2,180.7,601.1,180.7,614.7z"/>
			<path id="path3658" class="st3" d="M180.7,614.7c0,0.4,0,0.9,0,1.3c2.2-0.1,4.2-0.9,5.4-2c0-0.6,0-1.3,0-2
				c-1.1,1.2-3.1,2-5.3,2.2C180.7,614.4,180.7,614.5,180.7,614.7z"/>
			<path id="path3707" class="st4" d="M176.8,533.5l0.1,0.7c0.3,3,3.6,5.2,7.5,5.4l1,0.1l-0.7-0.7c-2-2.2-4.5-3.9-7.3-5.2
				L176.8,533.5z"/>
			<path id="path3715" class="st5" d="M178.3,561.8c0,0-3.1-11-4.4-14.5c-1.4-3.7-5.4-13.6-5.4-13.6s5.9,1.2,8,4.2
				c7.6,10.7,7.4,32.1,7.4,32.1"/>
			
				<linearGradient id="path3757_00000080198921796120380230000009257002330705323918_" gradientUnits="userSpaceOnUse" x1="254.7631" y1="92.1337" x2="251.5672" y2="93.1858" gradientTransform="matrix(4.489700e-11 -1 -1 -4.489700e-11 271.6988 803.6727)">
				<stop  offset="0" style="stop-color:#1A1A1A"/>
				<stop  offset="1" style="stop-color:#F30000;stop-opacity:0"/>
			</linearGradient>
			<path id="path3757" style="fill:url(#path3757_00000080198921796120380230000009257002330705323918_);" d="M175.5,549.9l0.3,0.6
				c0.2-0.1,0.3-0.2,0.5-0.3c1.6-0.7,4,1.5,4.9,3.7c0,0.1,0.1,0.3,0.2,0.5l-0.5-1.9c-1.2-2.4-3.2-3.8-4.7-3.2
				C176,549.4,175.7,549.6,175.5,549.9L175.5,549.9z"/>
			
				<linearGradient id="path3787_00000084523219643468311110000012139925945173338006_" gradientUnits="userSpaceOnUse" x1="246.0873" y1="394.402" x2="244.4647" y2="394.3931" gradientTransform="matrix(4.489700e-11 -1 -1 -4.489700e-11 572.2571 790.5436)">
				<stop  offset="0" style="stop-color:#1A1A1A"/>
				<stop  offset="1" style="stop-color:#F30000;stop-opacity:0"/>
			</linearGradient>
			<path id="path3787" style="fill:url(#path3787_00000084523219643468311110000012139925945173338006_);" d="M174.9,548.7l0.3,0.6
				c0.2-0.1,0.3-0.2,0.5-0.3c1.6-0.7,4,1.5,4.9,3.7c0,0.1,0.1,0.3,0.2,0.5l-0.5-1.9c-1.2-2.4-3.2-3.8-4.7-3.2
				C175.4,548.2,175.1,548.4,174.9,548.7L174.9,548.7z"/>
			
				<linearGradient id="path3752_00000003073561907727400710000014436736535341285011_" gradientUnits="userSpaceOnUse" x1="239.6054" y1="392.6817" x2="230.7644" y2="393.4532" gradientTransform="matrix(4.489700e-11 -1 -1 -4.489700e-11 570.843 784.3564)">
				<stop  offset="0" style="stop-color:#1A1A1A"/>
				<stop  offset="1" style="stop-color:#F30000;stop-opacity:0"/>
			</linearGradient>
			<path id="path3752" style="fill:url(#path3752_00000003073561907727400710000014436736535341285011_);" d="M174.7,547.9l0.3,0.6
				c0.2-0.1,0.3-0.2,0.5-0.3c1.6-0.7,4,1.5,4.9,3.7c0,0.1,0.1,0.3,0.2,0.5l-0.5-1.9c-1.2-2.4-3.2-3.8-4.7-3.2
				C175.2,547.4,174.9,547.6,174.7,547.9L174.7,547.9z"/>
			
				<linearGradient id="path3735_00000109720576361862354260000002822132105270585221_" gradientUnits="userSpaceOnUse" x1="245.8767" y1="390.8043" x2="244.019" y2="391.7738" gradientTransform="matrix(4.489700e-11 -1 -1 -4.489700e-11 572.2571 790.5436)">
				<stop  offset="0" style="stop-color:#1A1A1A"/>
				<stop  offset="1" style="stop-color:#F30000;stop-opacity:0"/>
			</linearGradient>
			<path id="path3735" style="fill:url(#path3735_00000109720576361862354260000002822132105270585221_);" d="M174.1,545.5l0.3,0.9
				c0.2-0.1,0.5-0.2,0.8-0.3c2.2-0.4,4.7,2.9,5.3,5.9c0.1,0.5,1.2,4,1.2,4.4h0.6l-1.7-5.7c-0.8-3.6-3.1-6.2-5.3-5.8
				C174.8,545.1,174.4,545.2,174.1,545.5L174.1,545.5z"/>
			
				<linearGradient id="path3783_00000005957214042451021350000004548495426705556379_" gradientUnits="userSpaceOnUse" x1="242.8392" y1="390.3547" x2="236.6681" y2="397.3883" gradientTransform="matrix(4.489700e-11 -1 -1 -4.489700e-11 572.2571 790.5436)">
				<stop  offset="0" style="stop-color:#1A1A1A"/>
				<stop  offset="1" style="stop-color:#F30000;stop-opacity:0"/>
			</linearGradient>
			<path id="path3783" style="fill:url(#path3783_00000005957214042451021350000004548495426705556379_);" d="M174.1,545.5l0.3,0.9
				c0.2-0.1,0.5-0.2,0.8-0.3c2.2-0.4,4.7,2.9,5.3,5.9c0.1,0.5,1.2,4,1.2,4.4h0.6l-1.7-5.7c-0.8-3.6-3.1-6.2-5.3-5.8
				C174.8,545.1,174.4,545.2,174.1,545.5L174.1,545.5z"/>
			
				<linearGradient id="path3799_00000122710925346504515040000005901108175650066055_" gradientUnits="userSpaceOnUse" x1="286.1158" y1="375.633" x2="274.7179" y2="375.4603" gradientTransform="matrix(4.010700e-11 -0.8933 -0.8933 -4.010700e-11 514.2903 803.076)">
				<stop  offset="0" style="stop-color:#1A1A1A"/>
				<stop  offset="1" style="stop-color:#F30000;stop-opacity:0"/>
			</linearGradient>
			<path id="path3799" style="fill:url(#path3799_00000122710925346504515040000005901108175650066055_);" d="M176.1,551.7l0.3,0.5
				c0.1-0.1,0.3-0.2,0.5-0.3c1.4-0.6,3.6,1.3,4.4,3.3c0,0.1,0.1,0.2,0.2,0.4L181,554c-1-2.1-2.8-3.4-4.2-2.8
				C176.6,551.3,176.3,551.4,176.1,551.7L176.1,551.7z"/>
			
				<linearGradient id="path3803_00000139281232930706134530000009227092526000135315_" gradientUnits="userSpaceOnUse" x1="298.2954" y1="378.6355" x2="288.9457" y2="379.1875" gradientTransform="matrix(4.010700e-11 -0.8933 -0.8933 -4.010700e-11 517.8636 816.8835)">
				<stop  offset="0" style="stop-color:#1A1A1A"/>
				<stop  offset="1" style="stop-color:#F30000;stop-opacity:0"/>
			</linearGradient>
			<path id="path3803" style="fill:url(#path3803_00000139281232930706134530000009227092526000135315_);" d="M176.6,553.6l0.3,0.5
				c0.1-0.1,0.3-0.2,0.5-0.3c1.4-0.6,3.6,1.3,4.4,3.3c0,0.1,0.1,0.2,0.2,0.4l-0.5-1.7c-1-2.1-2.8-3.4-4.2-2.8
				C177.1,553.2,176.8,553.3,176.6,553.6L176.6,553.6z"/>
			
				<linearGradient id="rect3861_00000026876342096563257000000002996795565544533938_" gradientUnits="userSpaceOnUse" x1="172.1634" y1="183.5366" x2="168.8375" y2="184.2901" gradientTransform="matrix(0.138 -0.9904 -0.9904 -0.138 339.8306 830.9106)">
				<stop  offset="0" style="stop-color:#1A1A1A"/>
				<stop  offset="1" style="stop-color:#F30000;stop-opacity:0"/>
			</linearGradient>
			<path id="rect3861" style="fill:url(#rect3861_00000026876342096563257000000002996795565544533938_);" d="M179.3,637.8
				c-0.3-1.1-0.2-2.1,0.8-2.7l2.5,0.3c0.9,0.9,0.7,1.9,0,2.8L179.3,637.8L179.3,637.8z"/>
			
				<linearGradient id="path3864_00000036963683744848000120000011194482299750267027_" gradientUnits="userSpaceOnUse" x1="164.5452" y1="183.7621" x2="161.4717" y2="183.8186" gradientTransform="matrix(0.138 -0.9904 -0.9904 -0.138 341.1128 820.6483)">
				<stop  offset="0" style="stop-color:#1A1A1A"/>
				<stop  offset="1" style="stop-color:#F30000;stop-opacity:0"/>
			</linearGradient>
			<path id="path3864" style="fill:url(#path3864_00000036963683744848000120000011194482299750267027_);" d="M179.8,635
				c-0.2-1.1-0.1-2.1,0.8-2.6l2.4,0.3c0.4,0.9,0.7,1.8,0,2.7L179.8,635L179.8,635z"/>
			<path id="path4025" class="st15" d="M180.3,614.7c0,4.6,0.2,9,0.7,13.1l0.1,0.5l0.4-0.2c1.7-0.9,2.9-2.3,3.6-4
				c0.7-1.7,1.1-3.8,1.2-6.2c0.2-4.8-0.4-11-0.3-18.4c0.1-6.9,0.3-12.4,0.3-16.8l-0.7-0.2C182.5,589.1,180.3,601,180.3,614.7z
				 M181,614.7c0-12.6,1.9-23.7,4.7-30.4c-0.1,4.1-0.2,9-0.3,15.1c-0.1,7.4,0.5,13.7,0.3,18.4c-0.1,2.4-0.4,4.4-1.1,6
				c-0.6,1.4-1.5,2.6-2.9,3.4C181.2,623.3,181,619.1,181,614.7z"/>
			<path id="rect2864" class="st16" d="M146.5,634l1.7,10.7c0.6,3.7,6.7,6.8,14.5,7c7.7-0.3,13.9-3.3,14.5-7l1.7-10.7
				c0-1.8-1.5-3.3-3.3-3.3h-25.8C147.9,630.7,146.5,632.2,146.5,634L146.5,634z"/>
			<path id="path3703" class="st16" d="M141.7,574.5c0,0.4,0,0.8,0.1,1.2c0,0,0,0,0,0l1.7,8.8c0.9,2.4,2,4.4,4.4,4.4h29.3
				c2.4,0,3.5-2,4.4-4.4l1.7-8.8c0,0,0,0,0,0c0.1-0.4,0.1-0.8,0.1-1.2c0-6.3-7.9-11.3-20.9-11.4
				C149.7,563.1,141.7,568.2,141.7,574.5L141.7,574.5z"/>
			<path id="path4157" class="st2" d="M144.6,614.7c0,4.6-0.2,9-0.7,13.1c-6.7-3.5-4.2-13.5-4.4-28.4c-0.1-6.9-0.3-12.4-0.3-16.8
				C142.5,589.2,144.6,601.1,144.6,614.7z"/>
			<path id="path4159" class="st3" d="M144.6,614.7c0,0.4,0,0.9,0,1.3c-2.2-0.1-4.2-0.9-5.4-2c0-0.6,0-1.3,0-2
				c1.1,1.2,3.1,2,5.3,2.2C144.6,614.4,144.6,614.5,144.6,614.7z"/>
			<path id="path4161" class="st4" d="M148.5,533.5l-0.1,0.7c-0.3,3-3.6,5.2-7.5,5.4l-1,0.1l0.7-0.7c2-2.2,4.5-3.9,7.3-5.2
				L148.5,533.5z"/>
			<path id="path4163" class="st5" d="M146.9,561.8c0,0,3.1-11,4.4-14.5c1.4-3.7,5.4-13.6,5.4-13.6s-5.9,1.2-8,4.2
				c-7.6,10.7-7.4,32.1-7.4,32.1"/>
			
				<linearGradient id="path4165_00000005984112357588989150000001946366400681000084_" gradientUnits="userSpaceOnUse" x1="254.7631" y1="699.716" x2="251.5672" y2="700.7682" gradientTransform="matrix(4.489700e-11 -1 1 4.489700e-11 -553.9933 803.6727)">
				<stop  offset="0" style="stop-color:#1A1A1A"/>
				<stop  offset="1" style="stop-color:#F30000;stop-opacity:0"/>
			</linearGradient>
			<path id="path4165" style="fill:url(#path4165_00000005984112357588989150000001946366400681000084_);" d="M149.8,549.9l-0.3,0.6
				c-0.2-0.1-0.3-0.2-0.5-0.3c-1.6-0.7-4,1.5-4.9,3.7c0,0.1-0.1,0.3-0.2,0.5l0.5-1.9c1.2-2.4,3.2-3.8,4.7-3.2
				C149.3,549.4,149.6,549.6,149.8,549.9L149.8,549.9z"/>
			
				<linearGradient id="path4167_00000017513449336112161180000007215952040362380165_" gradientUnits="userSpaceOnUse" x1="246.0873" y1="1001.9843" x2="244.4647" y2="1001.9754" gradientTransform="matrix(4.489700e-11 -1 1 4.489700e-11 -854.5516 790.5436)">
				<stop  offset="0" style="stop-color:#1A1A1A"/>
				<stop  offset="1" style="stop-color:#F30000;stop-opacity:0"/>
			</linearGradient>
			<path id="path4167" style="fill:url(#path4167_00000017513449336112161180000007215952040362380165_);" d="M150.4,548.7l-0.3,0.6
				c-0.2-0.1-0.3-0.2-0.5-0.3c-1.6-0.7-4,1.5-4.9,3.7c0,0.1-0.1,0.3-0.2,0.5l0.5-1.9c1.2-2.4,3.2-3.8,4.7-3.2
				C149.9,548.2,150.2,548.4,150.4,548.7L150.4,548.7z"/>
			
				<linearGradient id="path4169_00000118387307811062915300000016958218682888051888_" gradientUnits="userSpaceOnUse" x1="239.6054" y1="1000.264" x2="230.7644" y2="1001.0355" gradientTransform="matrix(4.489700e-11 -1 1 4.489700e-11 -853.1374 784.3564)">
				<stop  offset="0" style="stop-color:#1A1A1A"/>
				<stop  offset="1" style="stop-color:#F30000;stop-opacity:0"/>
			</linearGradient>
			<path id="path4169" style="fill:url(#path4169_00000118387307811062915300000016958218682888051888_);" d="M150.6,547.9l-0.3,0.6
				c-0.2-0.1-0.3-0.2-0.5-0.3c-1.6-0.7-4,1.5-4.9,3.7c0,0.1-0.1,0.3-0.2,0.5l0.5-1.9c1.2-2.4,3.2-3.8,4.7-3.2
				C150.1,547.4,150.4,547.6,150.6,547.9L150.6,547.9z"/>
			
				<linearGradient id="path4171_00000132083461153224759180000006076802396848925836_" gradientUnits="userSpaceOnUse" x1="245.8768" y1="998.3865" x2="244.019" y2="999.3561" gradientTransform="matrix(4.489700e-11 -1 1 4.489700e-11 -854.5516 790.5436)">
				<stop  offset="0" style="stop-color:#1A1A1A"/>
				<stop  offset="1" style="stop-color:#F30000;stop-opacity:0"/>
			</linearGradient>
			<path id="path4171" style="fill:url(#path4171_00000132083461153224759180000006076802396848925836_);" d="M151.2,545.5l-0.3,0.9
				c-0.2-0.1-0.5-0.2-0.8-0.3c-2.2-0.4-4.7,2.9-5.3,5.9c-0.1,0.5-1.2,4-1.2,4.4h-0.6l1.7-5.7c0.8-3.6,3.1-6.2,5.3-5.8
				C150.5,545.1,150.8,545.2,151.2,545.5L151.2,545.5z"/>
			
				<linearGradient id="path4173_00000057111290955793849730000017278947878597619602_" gradientUnits="userSpaceOnUse" x1="242.8392" y1="997.937" x2="236.6681" y2="1004.9706" gradientTransform="matrix(4.489700e-11 -1 1 4.489700e-11 -854.5516 790.5436)">
				<stop  offset="0" style="stop-color:#1A1A1A"/>
				<stop  offset="1" style="stop-color:#F30000;stop-opacity:0"/>
			</linearGradient>
			<path id="path4173" style="fill:url(#path4173_00000057111290955793849730000017278947878597619602_);" d="M151.2,545.5l-0.3,0.9
				c-0.2-0.1-0.5-0.2-0.8-0.3c-2.2-0.4-4.7,2.9-5.3,5.9c-0.1,0.5-1.2,4-1.2,4.4h-0.6l1.7-5.7c0.8-3.6,3.1-6.2,5.3-5.8
				C150.5,545.1,150.8,545.2,151.2,545.5L151.2,545.5z"/>
			
				<linearGradient id="path4175_00000093136650205364774570000001976643976747811214_" gradientUnits="userSpaceOnUse" x1="286.1158" y1="1055.771" x2="274.7179" y2="1055.5983" gradientTransform="matrix(4.010700e-11 -0.8933 0.8933 4.010700e-11 -796.5848 803.076)">
				<stop  offset="0" style="stop-color:#1A1A1A"/>
				<stop  offset="1" style="stop-color:#F30000;stop-opacity:0"/>
			</linearGradient>
			<path id="path4175" style="fill:url(#path4175_00000093136650205364774570000001976643976747811214_);" d="M149.2,551.7l-0.3,0.5
				c-0.1-0.1-0.3-0.2-0.5-0.3c-1.4-0.6-3.6,1.3-4.4,3.3c0,0.1-0.1,0.2-0.2,0.4l0.5-1.7c1-2.1,2.8-3.4,4.2-2.8
				C148.7,551.3,149,551.4,149.2,551.7L149.2,551.7z"/>
			
				<linearGradient id="path4177_00000046308783529412820010000014596458000108435864_" gradientUnits="userSpaceOnUse" x1="298.2954" y1="1058.7736" x2="288.9457" y2="1059.3256" gradientTransform="matrix(4.010700e-11 -0.8933 0.8933 4.010700e-11 -800.1581 816.8835)">
				<stop  offset="0" style="stop-color:#1A1A1A"/>
				<stop  offset="1" style="stop-color:#F30000;stop-opacity:0"/>
			</linearGradient>
			<path id="path4177" style="fill:url(#path4177_00000046308783529412820010000014596458000108435864_);" d="M148.7,553.6l-0.3,0.5
				c-0.1-0.1-0.3-0.2-0.5-0.3c-1.4-0.6-3.6,1.3-4.4,3.3c0,0.1-0.1,0.2-0.2,0.4l0.5-1.7c1-2.1,2.8-3.4,4.2-2.8
				C148.2,553.2,148.5,553.3,148.7,553.6L148.7,553.6z"/>
			
				<linearGradient id="path4179_00000122702919331953509570000014585642529438826907_" gradientUnits="userSpaceOnUse" x1="88.325" y1="785.3069" x2="84.9991" y2="786.0605" gradientTransform="matrix(-0.138 -0.9904 0.9904 -0.138 -622.1252 830.9106)">
				<stop  offset="0" style="stop-color:#1A1A1A"/>
				<stop  offset="1" style="stop-color:#F30000;stop-opacity:0"/>
			</linearGradient>
			<path id="path4179" style="fill:url(#path4179_00000122702919331953509570000014585642529438826907_);" d="M145.9,637.8
				c0.3-1.1,0.2-2.1-0.8-2.7l-2.5,0.3c-0.9,0.9-0.7,1.9,0,2.8L145.9,637.8L145.9,637.8z"/>
			
				<linearGradient id="path4181_00000129921115172502255140000016531077421976200852_" gradientUnits="userSpaceOnUse" x1="80.7068" y1="785.5323" x2="77.6333" y2="785.5889" gradientTransform="matrix(-0.138 -0.9904 0.9904 -0.138 -623.4073 820.6483)">
				<stop  offset="0" style="stop-color:#1A1A1A"/>
				<stop  offset="1" style="stop-color:#F30000;stop-opacity:0"/>
			</linearGradient>
			<path id="path4181" style="fill:url(#path4181_00000129921115172502255140000016531077421976200852_);" d="M145.5,635
				c0.2-1.1,0.1-2.1-0.8-2.6l-2.4,0.3c-0.4,0.9-0.7,1.8,0,2.7L145.5,635L145.5,635z"/>
			<path id="path4183" class="st15" d="M145,614.7c0,4.6-0.2,9-0.7,13.1l-0.1,0.5l-0.4-0.2c-1.7-0.9-2.9-2.3-3.6-4
				c-0.7-1.7-1.1-3.8-1.2-6.2c-0.2-4.8,0.4-11,0.3-18.4c-0.1-6.9-0.3-12.4-0.3-16.8l0.7-0.2C142.8,589.1,145,601,145,614.7z
				 M144.3,614.7c0-12.6-1.9-23.7-4.7-30.4c0.1,4.1,0.2,9,0.3,15.1c0.1,7.4-0.5,13.7-0.3,18.4c0.1,2.4,0.4,4.4,1.1,6
				c0.6,1.4,1.5,2.6,2.9,3.4C144.1,623.3,144.3,619.1,144.3,614.7z"/>
		</g>
	</g>
	<g>
		<line class="st26" x1="109.7" y1="219.4" x2="109.7" y2="0"/>
		<line class="st26" x1="219.4" y1="109.7" x2="0" y2="109.7"/>
	</g>
	<g>
		<g>
			<line class="st27" x1="109.7" y1="109.7" x2="159.2" y2="109.7"/>
			<g>
				<polygon class="st28" points="155.3,122.9 178.1,109.7 155.3,96.5 				"/>
			</g>
		</g>
	</g>
	<g>
		<g>
			<line class="st29" x1="109.3" y1="109.7" x2="109.3" y2="60.2"/>
			<g>
				<polygon class="st30" points="122.5,64.1 109.3,41.3 96.1,64.1 				"/>
			</g>
		</g>
	</g>
</g>
</svg>
