<?xml version="1.0" encoding="utf-8"?>
<!-- Generator: Adobe Illustrator 26.1.0, SVG Export Plug-In . SVG Version: 6.00 Build 0)  -->
<svg version="1.1" id="svg2" xmlns:svg="http://www.w3.org/2000/svg"
	 xmlns="http://www.w3.org/2000/svg" xmlns:xlink="http://www.w3.org/1999/xlink" x="0px" y="0px" viewBox="0 0 476 960"
	 style="enable-background:new 0 0 476 960;" xml:space="preserve">
<style type="text/css">
	.st0{fill-opacity:0.9961;stroke:#191919;stroke-width:14;}
	.st1{fill:#CA0000;fill-opacity:0.9961;}
	.st2{opacity:0.9;fill:#262626;fill-opacity:0.9961;enable-background:new    ;}
	.st3{opacity:0.5;fill-opacity:0.9961;enable-background:new    ;}
	.st4{fill:#212121;stroke:#191919;stroke-width:5;}
	.st5{opacity:0.5;fill:none;stroke:#292929;stroke-width:6;stroke-linecap:round;stroke-linejoin:round;enable-background:new    ;}
	.st6{fill:url(#path3757_00000021840345881925392430000009390865816025529768_);}
	.st7{fill:url(#path3787_00000132810299534786739410000001638042446340423844_);}
	.st8{fill:url(#path3752_00000049937694365499481780000016725791250311675039_);}
	.st9{fill:url(#path3735_00000152265023987578567920000005366198983692007605_);}
	.st10{fill:url(#path3783_00000015350937418651673820000009705672229650876301_);}
	.st11{fill:url(#path3799_00000040557388766216962190000000142401778202831028_);}
	.st12{fill:url(#path3803_00000007388001640112207510000011388644627230906532_);}
	.st13{fill:url(#rect3861_00000039125289486147297650000016208432699036206264_);}
	.st14{fill:url(#path3864_00000173865941035936412840000017649759688182188417_);}
	.st15{opacity:0.9;fill:#191919;enable-background:new    ;}
	.st16{opacity:0.9;fill:#262626;fill-opacity:0.9961;stroke:#191919;stroke-width:5;enable-background:new    ;}
	.st17{fill:url(#path4165_00000098187189435230637660000011785199758919586720_);}
	.st18{fill:url(#path4167_00000098937812082809289480000005253589805552749197_);}
	.st19{fill:url(#path4169_00000106142961628181886640000015219748543802387629_);}
	.st20{fill:url(#path4171_00000057861459304139425200000000991968359129427379_);}
	.st21{fill:url(#path4173_00000028286725333566016670000012704905467565813403_);}
	.st22{fill:url(#path4175_00000104666159257940754490000013286983420847158697_);}
	.st23{fill:url(#path4177_00000021100872242695071110000001672181873065674394_);}
	.st24{fill:url(#path4179_00000048503596645454413630000015330309514928113291_);}
	.st25{fill:url(#path4181_00000033331854922973472360000015371490309939744695_);}
</style>
<g id="layer1" transform="translate(-52.937117,-486.6931)">
	<g id="g3890">
		<path id="path3855" class="st0" d="M59.9,889.1c0,1.5,0.3,4.7,0.9,6.5l1.5,3.5l35.9-8.7l0.3,124.8c0,2.4,0,4.9,0,7.3
			c0,4.9-0.1,9.9-0.2,14.8c-0.2,7.3-0.4,14.7-0.7,22.1c0,0.4,0,0.8-0.1,1.2c-0.6,14.9-1.5,30-2.4,45c-1.3,20.3-2.7,40.5-3.9,60.1
			c-0.9,14.5-1.6,28.7-2,42.4c-0.3,9.4-0.5,18.5-0.4,27.2c0,4.3,0.1,8.6,0.2,12.7c0.1,4.2,0.4,8.4,0.7,12.7c0.2,2.1,0.3,4.3,0.5,6.4
			c0.6,6.5,1.3,13,2.2,19.6c0,0,0,0,0,0c0.6,4.4,1.2,8.7,1.9,13.1s1.4,8.7,2.2,12.9c0.8,4.3,1.6,8.5,2.4,12.6c0,0,0,0,0,0
			c0.4,2.1,0.8,4.1,1.2,6.1c1.2,6.1,2.5,11.9,3.8,17.5c0,0,0,0,0,0c0.8,3.7,1.7,7.3,2.5,10.7c1.6,6.9,3.2,13.1,4.7,18.5
			c2.1,8.1,3.9,14.4,5,18.1c0.7,2.5,1.1,3.8,1.1,3.8l3.8,13.7c0.2,0.9,0.7,1.8,1.3,2.6c0.2,0.3,0.4,0.6,0.7,0.8
			c1,1.1,2.3,2.2,3.8,3.2c0,0,0,0,0,0c0.8,0.5,1.6,1,2.6,1.5c0,0,0,0,0,0c0.9,0.5,1.9,1,3,1.4c0,0,0,0,0,0
			c8.5,3.7,21.1,6.6,36.2,8.9c0,0,0,0,0,0c0.2,0,0.5,0.1,0.7,0.1c3.3,0.5,6.8,1,10.3,1.4c0.2,0,0.5,0.1,0.7,0.1
			c4,0.5,8.2,0.9,12.5,1.4c0,0,0,0,0,0c2.1,0.2,4.3,0.4,6.5,0.6c0,0,0,0,0,0c2.2,0.2,4.3,0.4,6.6,0.6c0,0,0,0,0,0
			c4.4,0.4,8.9,0.7,13.5,1c0,0,0,0,0,0c13.7,0.9,27.8,1.5,41.6,1.8c0,0,0,0,0,0c9.2,0.2,18.2,0.3,26.9,0.3c1,0,2,0,2.9,0
			c1,0,2,0,2.9,0c8.7,0,17.7-0.1,26.9-0.3c0,0,0,0,0,0c13.8-0.3,27.9-0.9,41.6-1.8c0,0,0,0,0,0c4.6-0.3,9.1-0.6,13.5-1c0,0,0,0,0,0
			c2.2-0.2,4.4-0.4,6.6-0.6c0,0,0,0,0,0c2.2-0.2,4.3-0.4,6.5-0.6c0,0,0,0,0,0c4.3-0.4,8.4-0.9,12.5-1.4c0.2,0,0.5-0.1,0.7-0.1
			c3.5-0.4,7-0.9,10.3-1.4c0.2,0,0.5-0.1,0.7-0.1c0,0,0,0,0,0c15.1-2.3,27.7-5.3,36.2-8.9c0,0,0,0,0,0c1.1-0.5,2-0.9,3-1.4
			c0,0,0,0,0,0c0.9-0.5,1.8-1,2.6-1.5c0,0,0,0,0,0c1.6-1,2.9-2.1,3.8-3.2c0.3-0.3,0.5-0.6,0.7-0.8c0.6-0.8,1.1-1.7,1.3-2.6l3.8-13.7
			c0,0,0.4-1.3,1.1-3.8c1.1-3.7,2.9-10,5-18.1c1.4-5.4,3-11.7,4.7-18.5c0.8-3.4,1.7-7,2.5-10.7c0,0,0,0,0,0
			c1.3-5.6,2.5-11.4,3.8-17.5c0.4-2,0.8-4,1.2-6.1c0,0,0,0,0,0c0.8-4.1,1.6-8.3,2.4-12.6c0.8-4.3,1.5-8.6,2.2-12.9s1.3-8.7,1.9-13.1
			c0,0,0,0,0,0c0.9-6.5,1.6-13.1,2.2-19.6c0.2-2.2,0.3-4.3,0.5-6.4c0.3-4.3,0.5-8.5,0.7-12.7s0.2-8.4,0.2-12.7
			c0.1-8.8-0.1-17.9-0.4-27.2c-0.4-13.6-1.1-27.8-2-42.4c-1.2-19.6-2.6-39.8-3.9-60.1c-0.9-15-1.8-30.1-2.4-45c0-0.4,0-0.8-0.1-1.2
			c-0.3-7.4-0.6-14.8-0.7-22.1c-0.1-5-0.2-9.9-0.2-14.8c0-2.5,0-4.9,0-7.3l0.3-124.8l35.9,8.7l1.5-3.5c0.6-1.7,0.9-5,0.9-6.5
			c0-0.8-0.1-1.8-0.2-2.7c-0.1-0.3-0.1-0.6-0.2-0.9c-0.1-0.3-0.2-0.6-0.2-0.9c-0.2-0.6-0.4-1.3-0.7-1.9c-0.8-1.8-1.9-3.5-3.3-4.8
			c0,0,0,0,0,0c-0.7-0.6-1.5-1.1-2.3-1.5l-31.3-12.2l0.2-109.9c0.4-0.7,0.7-1.5,1.1-2.2c1.4-3,2.6-5.9,3.6-8.8
			c0.5-1.5,1-2.9,1.4-4.4c1.5-5.1,2.6-10.2,3.2-15.3c0.4-2.9,0.7-5.9,0.9-8.9c0.1-1.5,0.2-3,0.2-4.6c0.1-3.1,0.2-6.1,0.2-9.3
			c0.1-6.3,0-13,0-20c0-10.4-0.5-20.3-1.6-29.8c-0.4-3.8-0.9-7.5-1.5-11.1c-1.1-7.3-2.6-14.2-4.4-20.9c-0.4-1.7-0.9-3.3-1.4-5
			c-1.4-4.9-3-9.6-4.8-14.2c-0.6-1.5-1.2-3-1.8-4.5c-1.2-3-2.6-5.9-3.9-8.7c-0.7-1.4-1.4-2.8-2.1-4.2c-1.4-2.8-3-5.5-4.6-8.1
			c-0.8-1.3-1.6-2.6-2.4-3.9c-4.1-6.4-8.6-12.4-13.5-17.9c-3.9-4.4-8.1-8.6-12.5-12.5c0,0,0,0,0,0c-1.1-1-2.2-1.9-3.3-2.9
			c0,0,0,0,0,0c-1.1-0.9-2.3-1.9-3.4-2.8c0,0,0,0,0,0c-3.5-2.7-7-5.3-10.7-7.7c0,0,0,0,0,0c-1.2-0.8-2.5-1.6-3.7-2.4c0,0,0,0,0,0
			c-3.8-2.3-7.7-4.6-11.7-6.6c0,0,0,0,0,0c-1.3-0.7-2.7-1.3-4-2c0,0,0,0,0,0c-1.4-0.7-2.7-1.3-4.1-1.9c0,0,0,0,0,0
			c-2.8-1.2-5.6-2.4-8.4-3.6c0,0,0,0,0,0c-1.4-0.6-2.9-1.1-4.3-1.6c0,0,0,0,0,0c-1.4-0.5-2.9-1.1-4.4-1.6c-1.5-0.5-2.9-1-4.4-1.5
			c0,0,0,0,0,0c-1.5-0.5-3-0.9-4.5-1.4c0,0,0,0,0,0c-1.5-0.4-3-0.9-4.6-1.3c0,0,0,0,0,0c-4.6-1.2-9.3-2.4-14.1-3.3h0
			c-1.6-0.3-3.2-0.6-4.8-0.9h0c-11.3-2.1-23.1-3.5-35.2-4.2c0,0,0,0,0,0c-1.7-0.1-3.5-0.2-5.2-0.2c0,0,0,0,0,0
			c-3.5-0.1-7-0.2-10.6-0.3c0,0,0,0,0,0c-1.8,0-3.6,0-5.4,0c-0.6,0-1.3,0-1.9,0c-0.6,0-1.3,0-1.9,0c-1.8,0-3.6,0-5.4,0c0,0,0,0,0,0
			c-3.6,0-7.1,0.1-10.6,0.3c0,0,0,0,0,0c-1.7,0.1-3.5,0.2-5.2,0.2c0,0,0,0,0,0c-12.2,0.7-23.9,2.1-35.2,4.2h0
			c-1.6,0.3-3.2,0.6-4.8,0.9h0c-4.8,1-9.5,2.1-14.1,3.3c0,0,0,0,0,0c-1.5,0.4-3.1,0.8-4.6,1.3c0,0,0,0,0,0c-1.5,0.4-3,0.9-4.5,1.4
			c0,0,0,0,0,0c-1.5,0.5-3,1-4.4,1.5c-1.5,0.5-2.9,1-4.4,1.6c0,0,0,0,0,0c-1.4,0.5-2.9,1.1-4.3,1.6c0,0,0,0,0,0
			c-2.9,1.1-5.6,2.3-8.4,3.6c0,0,0,0,0,0c-1.4,0.6-2.7,1.3-4.1,1.9c0,0,0,0,0,0c-1.4,0.7-2.7,1.3-4,2c0,0,0,0,0,0
			c-4,2.1-7.9,4.3-11.7,6.6c0,0,0,0,0,0c-1.3,0.8-2.5,1.6-3.7,2.4c0,0,0,0,0,0c-3.7,2.4-7.3,5-10.7,7.7c0,0,0,0,0,0
			c-1.1,0.9-2.3,1.8-3.4,2.8c0,0,0,0,0,0c-1.1,0.9-2.2,1.9-3.3,2.9c0,0,0,0,0,0c-4.4,3.9-8.5,8.1-12.5,12.5
			c-4.9,5.5-9.4,11.5-13.5,17.9c-0.8,1.3-1.6,2.6-2.4,3.9c-1.6,2.6-3.1,5.3-4.6,8.1c-0.7,1.4-1.4,2.8-2.1,4.2
			c-1.4,2.8-2.7,5.7-3.9,8.7c-0.6,1.5-1.2,3-1.8,4.5c-1.8,4.6-3.4,9.3-4.8,14.2c-0.5,1.6-0.9,3.3-1.4,5c-1.8,6.7-3.2,13.6-4.4,20.9
			c-0.6,3.6-1.1,7.3-1.5,11.1c-1,9.5-1.6,19.4-1.6,29.8c0,7-0.1,13.7,0,20c0,3.2,0.1,6.3,0.2,9.3c0.1,1.5,0.1,3.1,0.2,4.6
			c0.2,3,0.5,6,0.9,8.9c0.7,5.2,1.7,10.2,3.2,15.3c0.4,1.5,0.9,2.9,1.4,4.4c1,2.9,2.2,5.9,3.6,8.8c0.3,0.7,0.7,1.5,1.1,2.2
			l0.2,109.9L67,876.4c-0.8,0.4-1.6,0.8-2.3,1.5c0,0,0,0,0,0c-1.4,1.2-2.5,3-3.3,4.8c-0.3,0.6-0.5,1.2-0.7,1.9
			c-0.1,0.3-0.2,0.6-0.2,0.9c-0.1,0.3-0.2,0.6-0.2,0.9C60,887.4,59.9,888.3,59.9,889.1L59.9,889.1z"/>
		<path id="carbody" class="st1" d="M59.9,889.1c0,1.5,0.3,4.7,0.9,6.5l1.5,3.5l35.8-8.7l0.3,124.8c0.2,78-11.5,166.5-9.5,232.9
			c2,66.4,28,152.1,28,152.1l3.8,13.7c5.3,19.3,97.4,25.7,166.8,25.7c1.1,0,2.3,0,3.4,0c1.1,0,2.3,0,3.4,0
			c69.4,0,161.5-6.5,166.8-25.7l3.8-13.7c0,0,26-85.7,28-152.1c2-66.4-9.7-155-9.5-232.9l0.3-124.8l35.8,8.7l1.5-3.5
			c0.6-1.7,0.9-5,0.9-6.5c0-0.8-0.1-1.8-0.2-2.7c-0.1-0.3-0.1-0.6-0.2-0.9c-0.1-0.3-0.2-0.6-0.2-0.9c-0.2-0.6-0.4-1.3-0.7-1.9
			c-0.8-1.8-1.9-3.5-3.3-4.8c0,0,0,0,0,0c-0.7-0.6-1.5-1.1-2.3-1.5l-31.2-12.2l0.2-109.9c11.9-23.9,10.7-45.5,10.7-73.6
			c0-133.2-86.6-187.6-201.4-187c-0.8,0-1.6,0-2.3,0c-0.8,0-1.6,0-2.3,0c-114.8-0.6-201.4,53.7-201.4,187c0,28.1-1.2,49.7,10.7,73.6
			l0.2,109.9l-31.2,12.2c-0.8,0.4-1.6,0.8-2.3,1.5c0,0,0,0,0,0c-1.4,1.2-2.5,3-3.3,4.8c-0.3,0.6-0.5,1.2-0.7,1.9
			c-0.1,0.3-0.2,0.6-0.2,0.9c-0.1,0.3-0.2,0.6-0.2,0.9C60,887.4,59.9,888.3,59.9,889.1L59.9,889.1z"/>
		<path id="path3643" class="st2" d="M421.5,1099.3c0,33.4,1.8,65.3,5.1,94.8c48.7-25.7,30.3-98,31.5-205.6
			c0.6-49.7,1.9-89.5,2.4-121.5C437.1,914.2,421.5,1000.5,421.5,1099.3z"/>
		<path id="path3658" class="st3" d="M421.5,1099.3c0,3.2,0,6.4,0.1,9.6c16.2-0.8,30.3-6.4,38.8-14.6c-0.1-4.7-0.2-9.5-0.3-14.4
			c-8.2,8.6-22.2,14.6-38.6,15.7C421.5,1096.8,421.5,1098,421.5,1099.3z"/>
		<path id="path3707" class="st4" d="M393.7,510.6l0.6,5.1c2.5,21.5,26,37.7,54.5,39.3l7.1,0.4l-4.8-5.2
			c-14.7-15.9-32.5-28.3-52.8-37.4L393.7,510.6z"/>
		<path id="path3715" class="st5" d="M404.7,716.2c0,0-22.6-79.7-32-105.4c-9.8-26.8-39.1-98.9-39.1-98.9s42.5,8.7,57.9,30.5
			c54.9,77.2,53.9,232.7,53.9,232.7"/>
		
			<linearGradient id="path3757_00000019669136203268963570000001167160968599662739_" gradientUnits="userSpaceOnUse" x1="679.7366" y1="356.7168" x2="656.5755" y2="364.3418" gradientTransform="matrix(4.489659e-11 -1 -1 -4.489659e-11 770.285 1302.2589)">
			<stop  offset="0" style="stop-color:#1A1A1A"/>
			<stop  offset="1" style="stop-color:#F30000;stop-opacity:0"/>
		</linearGradient>
		<path id="path3757" style="fill:url(#path3757_00000019669136203268963570000001167160968599662739_);" d="M384.1,629.7l2.3,4.4
			c1.2-1,2.4-1.8,3.8-2.4c11.7-4.8,29.2,10.7,35.8,26.9c0.2,0.5,0.8,1.8,1.7,3.4l-3.9-13.6c-8.5-17.3-23.1-27.5-34-23
			C387.6,626.3,385.7,627.8,384.1,629.7L384.1,629.7z"/>
		
			<linearGradient id="path3787_00000051347320955205565710000014534549957677769386_" gradientUnits="userSpaceOnUse" x1="698.881" y1="669.6678" x2="687.1223" y2="669.6034" gradientTransform="matrix(4.489659e-11 -1 -1 -4.489659e-11 1070.8434 1289.1299)">
			<stop  offset="0" style="stop-color:#1A1A1A"/>
			<stop  offset="1" style="stop-color:#F30000;stop-opacity:0"/>
		</linearGradient>
		<path id="path3787" style="fill:url(#path3787_00000051347320955205565710000014534549957677769386_);" d="M379.6,621.1l2.3,4.4
			c1.2-1,2.4-1.8,3.8-2.4c11.7-4.8,29.2,10.7,35.8,26.9c0.2,0.5,0.8,1.8,1.7,3.4l-3.9-13.6c-8.5-17.3-23.1-27.5-34-23
			C383.1,617.7,381.2,619.2,379.6,621.1L379.6,621.1z"/>
		
			<linearGradient id="path3752_00000162354272958348275910000009426472086828780186_" gradientUnits="userSpaceOnUse" x1="690.558" y1="666.0353" x2="626.4857" y2="671.6263" gradientTransform="matrix(4.489659e-11 -1 -1 -4.489659e-11 1069.4291 1282.9426)">
			<stop  offset="0" style="stop-color:#1A1A1A"/>
			<stop  offset="1" style="stop-color:#F30000;stop-opacity:0"/>
		</linearGradient>
		<path id="path3752" style="fill:url(#path3752_00000162354272958348275910000009426472086828780186_);" d="M378.2,614.9l2.3,4.4
			c1.2-1,2.4-1.8,3.8-2.4c11.7-4.8,29.2,10.7,35.8,26.9c0.2,0.5,0.8,1.8,1.7,3.4l-3.9-13.6c-8.5-17.3-23.1-27.5-34-23
			C381.7,611.5,379.8,613,378.2,614.9L378.2,614.9z"/>
		
			<linearGradient id="path3735_00000108267120361689498710000004754795789776170425_" gradientUnits="userSpaceOnUse" x1="697.3552" y1="643.5945" x2="683.8918" y2="650.6209" gradientTransform="matrix(4.489659e-11 -1 -1 -4.489659e-11 1070.8434 1289.1299)">
			<stop  offset="0" style="stop-color:#1A1A1A"/>
			<stop  offset="1" style="stop-color:#F30000;stop-opacity:0"/>
		</linearGradient>
		<path id="path3735" style="fill:url(#path3735_00000108267120361689498710000004754795789776170425_);" d="M373.9,598l1.8,6.2
			c1.7-1,3.5-1.7,5.5-2c16-3.1,34.3,21,38.5,43c0.6,3.4,8.6,28.9,8.8,32.2h4.1l-12.1-41.4c-5.5-26.3-22.4-44.9-38.2-41.9
			C379.2,594.6,376.4,596,373.9,598L373.9,598z"/>
		
			<linearGradient id="path3783_00000092420330300313689420000010080073243938706824_" gradientUnits="userSpaceOnUse" x1="675.3414" y1="640.3363" x2="630.6182" y2="691.3104" gradientTransform="matrix(4.489659e-11 -1 -1 -4.489659e-11 1070.8434 1289.1299)">
			<stop  offset="0" style="stop-color:#1A1A1A"/>
			<stop  offset="1" style="stop-color:#F30000;stop-opacity:0"/>
		</linearGradient>
		<path id="path3783" style="fill:url(#path3783_00000092420330300313689420000010080073243938706824_);" d="M373.9,598l1.8,6.2
			c1.7-1,3.5-1.7,5.5-2c16-3.1,34.3,21,38.5,43c0.6,3.4,8.6,28.9,8.8,32.2h4.1l-12.1-41.4c-5.5-26.3-22.4-44.9-38.2-41.9
			C379.2,594.6,376.4,596,373.9,598L373.9,598z"/>
		
			<linearGradient id="path3799_00000177443781854578979780000007678191191545701567_" gradientUnits="userSpaceOnUse" x1="756.1649" y1="633.7736" x2="673.5626" y2="632.5217" gradientTransform="matrix(4.010712e-11 -0.8933 -0.8933 -4.010712e-11 973.6722 1287.6785)">
			<stop  offset="0" style="stop-color:#1A1A1A"/>
			<stop  offset="1" style="stop-color:#F30000;stop-opacity:0"/>
		</linearGradient>
		<path id="path3799" style="fill:url(#path3799_00000177443781854578979780000007678191191545701567_);" d="M388.7,642.5l2.1,4
			c1-0.9,2.2-1.6,3.4-2.1c10.5-4.3,26.1,9.6,32,24c0.2,0.5,0.8,1.6,1.5,3l-3.5-12.2c-7.6-15.5-20.6-24.5-30.4-20.5
			C391.8,639.5,390.1,640.8,388.7,642.5L388.7,642.5z"/>
		
			<linearGradient id="path3803_00000163052885807645871930000016383058749990872466_" gradientUnits="userSpaceOnUse" x1="747.8746" y1="630.5446" x2="680.1156" y2="634.5446" gradientTransform="matrix(4.010712e-11 -0.8933 -0.8933 -4.010712e-11 977.2454 1301.486)">
			<stop  offset="0" style="stop-color:#1A1A1A"/>
			<stop  offset="1" style="stop-color:#F30000;stop-opacity:0"/>
		</linearGradient>
		<path id="path3803" style="fill:url(#path3803_00000163052885807645871930000016383058749990872466_);" d="M392.3,656.3l2.1,4
			c1-0.9,2.2-1.6,3.4-2.1c10.5-4.3,26.1,9.6,32,24c0.2,0.5,0.8,1.6,1.5,3l-3.5-12.2c-7.6-15.5-20.6-24.5-30.4-20.5
			C395.4,653.3,393.7,654.6,392.3,656.3L392.3,656.3z"/>
		
			<linearGradient id="rect3861_00000003784807888345756490000007831421102522152119_" gradientUnits="userSpaceOnUse" x1="77.3576" y1="401.5204" x2="53.2544" y2="406.9815" gradientTransform="matrix(0.138 -0.9904 -0.9904 -0.138 816.8134 1378.9532)">
			<stop  offset="0" style="stop-color:#1A1A1A"/>
			<stop  offset="1" style="stop-color:#F30000;stop-opacity:0"/>
		</linearGradient>
		<path id="rect3861" style="fill:url(#rect3861_00000003784807888345756490000007831421102522152119_);" d="M412,1266.4
			c-2-8.3-1.5-15.5,5.8-19.8l17.9,2.5c6.2,6.9,5,13.8,0.2,20.6L412,1266.4L412,1266.4z"/>
		
			<linearGradient id="path3864_00000164493145434782035760000003230805396160662965_" gradientUnits="userSpaceOnUse" x1="86.7493" y1="404.0677" x2="64.4755" y2="404.4776" gradientTransform="matrix(0.138 -0.9904 -0.9904 -0.138 818.0956 1368.691)">
			<stop  offset="0" style="stop-color:#1A1A1A"/>
			<stop  offset="1" style="stop-color:#F30000;stop-opacity:0"/>
		</linearGradient>
		<path id="path3864" style="fill:url(#path3864_00000164493145434782035760000003230805396160662965_);" d="M415.2,1246.1
			c-1.2-8.2-0.6-15.2,5.5-18.8l17,2.4c3,6.5,5.2,13,0.1,19.6L415.2,1246.1L415.2,1246.1z"/>
		<path id="path4025" class="st15" d="M419,1099.3c0,33.5,1.8,65.5,5.1,95.1l0.4,3.7l3.2-1.7c12.7-6.7,21.1-16.6,26.4-29.1
			s7.6-27.6,8.4-45.1c1.6-35-2.6-80-2-133.6c0.6-49.7,1.9-89.5,2.4-121.5l-4.8-1.1C434.5,913.8,419,1000.3,419,1099.3z M424,1099.3
			c0-91.2,13.5-171.7,33.7-220.1c-0.6,30-1.6,65.2-2.1,109.3c-0.6,53.9,3.7,99,2,133.4c-0.8,17.2-3.1,31.8-8.1,43.4
			c-4.5,10.5-11.2,18.5-20.9,24.5C425.7,1161.5,424,1131.1,424,1099.3z"/>
		<path id="rect2864" class="st16" d="M173.6,1239.1l12.5,77.7c4.4,27.2,48.8,48.9,104.8,51c56.1-2.1,100.5-23.8,104.8-51l12.5-77.7
			c0-13.3-10.7-24-24-24H197.6C184.3,1215.1,173.6,1225.8,173.6,1239.1L173.6,1239.1z"/>
		<path id="path3703" class="st16" d="M139.4,807.7c0,3,0.3,5.9,1,8.8c0,0,0,0,0,0l12.3,63.8c6.6,17.7,14.3,32,32,32h212.6
			c17.7,0,25.4-14.3,32-32l12.3-63.8c0,0,0,0,0,0c0.6-2.9,1-5.8,1-8.8c0-45.4-57.4-82.2-151.5-82.3
			C196.8,725.5,139.4,762.3,139.4,807.7L139.4,807.7z"/>
		<path id="path4157" class="st2" d="M160.4,1099.3c0,33.4-1.8,65.3-5.1,94.8c-48.7-25.7-30.3-98-31.5-205.6
			c-0.6-49.7-1.9-89.5-2.4-121.5C144.8,914.2,160.4,1000.5,160.4,1099.3z"/>
		<path id="path4159" class="st3" d="M160.4,1099.3c0,3.2,0,6.4-0.1,9.6c-16.2-0.8-30.3-6.4-38.8-14.6c0.1-4.7,0.2-9.5,0.3-14.4
			c8.2,8.6,22.2,14.6,38.6,15.7C160.4,1096.8,160.4,1098,160.4,1099.3z"/>
		<path id="path4161" class="st4" d="M188.1,510.6l-0.6,5.1c-2.5,21.5-26,37.7-54.5,39.3l-7.1,0.4l4.8-5.2
			c14.7-15.9,32.5-28.3,52.8-37.4L188.1,510.6z"/>
		<path id="path4163" class="st5" d="M177.1,716.2c0,0,22.6-79.7,32-105.4c9.8-26.8,39.1-98.9,39.1-98.9s-42.5,8.7-57.9,30.5
			c-54.9,77.2-53.9,232.7-53.9,232.7"/>
		
			<linearGradient id="path4165_00000090999669319690269520000010471462876820307132_" gradientUnits="userSpaceOnUse" x1="679.7367" y1="958.717" x2="656.5756" y2="966.342" gradientTransform="matrix(4.489659e-11 -1 1 4.489659e-11 -790.4114 1302.2589)">
			<stop  offset="0" style="stop-color:#1A1A1A"/>
			<stop  offset="1" style="stop-color:#F30000;stop-opacity:0"/>
		</linearGradient>
		<path id="path4165" style="fill:url(#path4165_00000090999669319690269520000010471462876820307132_);" d="M197.8,629.7l-2.3,4.4
			c-1.2-1-2.4-1.8-3.8-2.4c-11.7-4.8-29.2,10.7-35.8,26.9c-0.2,0.5-0.8,1.8-1.7,3.4l3.9-13.6c8.5-17.3,23.1-27.5,34-23
			C194.3,626.3,196.2,627.8,197.8,629.7L197.8,629.7z"/>
		
			<linearGradient id="path4167_00000041294671867485790960000015296083611518377915_" gradientUnits="userSpaceOnUse" x1="698.881" y1="1271.668" x2="687.1223" y2="1271.6035" gradientTransform="matrix(4.489659e-11 -1 1 4.489659e-11 -1090.9696 1289.1299)">
			<stop  offset="0" style="stop-color:#1A1A1A"/>
			<stop  offset="1" style="stop-color:#F30000;stop-opacity:0"/>
		</linearGradient>
		<path id="path4167" style="fill:url(#path4167_00000041294671867485790960000015296083611518377915_);" d="M202.3,621.1l-2.3,4.4
			c-1.2-1-2.4-1.8-3.8-2.4c-11.7-4.8-29.2,10.7-35.8,26.9c-0.2,0.5-0.8,1.8-1.7,3.4l3.9-13.6c8.5-17.3,23.1-27.5,34-23
			C198.7,617.7,200.7,619.2,202.3,621.1L202.3,621.1z"/>
		
			<linearGradient id="path4169_00000151538286828952945580000004448780109785335461_" gradientUnits="userSpaceOnUse" x1="690.558" y1="1268.0354" x2="626.4857" y2="1273.6265" gradientTransform="matrix(4.489659e-11 -1 1 4.489659e-11 -1089.5554 1282.9426)">
			<stop  offset="0" style="stop-color:#1A1A1A"/>
			<stop  offset="1" style="stop-color:#F30000;stop-opacity:0"/>
		</linearGradient>
		<path id="path4169" style="fill:url(#path4169_00000151538286828952945580000004448780109785335461_);" d="M203.7,614.9l-2.3,4.4
			c-1.2-1-2.4-1.8-3.8-2.4c-11.7-4.8-29.2,10.7-35.8,26.9c-0.2,0.5-0.8,1.8-1.7,3.4l3.9-13.6c8.5-17.3,23.1-27.5,34-23
			C200.2,611.5,202.1,613,203.7,614.9L203.7,614.9z"/>
		
			<linearGradient id="path4171_00000098931778280892532960000018412090387546970552_" gradientUnits="userSpaceOnUse" x1="697.3553" y1="1245.5946" x2="683.8919" y2="1252.6211" gradientTransform="matrix(4.489659e-11 -1 1 4.489659e-11 -1090.9696 1289.1299)">
			<stop  offset="0" style="stop-color:#1A1A1A"/>
			<stop  offset="1" style="stop-color:#F30000;stop-opacity:0"/>
		</linearGradient>
		<path id="path4171" style="fill:url(#path4171_00000098931778280892532960000018412090387546970552_);" d="M207.9,598l-1.8,6.2
			c-1.7-1-3.5-1.7-5.5-2c-16-3.1-34.3,21-38.5,43c-0.6,3.4-8.6,28.9-8.8,32.2h-4.1l12.1-41.4c5.5-26.3,22.4-44.9,38.2-41.9
			C202.7,594.6,205.5,596,207.9,598L207.9,598z"/>
		
			<linearGradient id="path4173_00000137102998718767304720000013636749085638643359_" gradientUnits="userSpaceOnUse" x1="675.3414" y1="1242.3364" x2="630.6183" y2="1293.3105" gradientTransform="matrix(4.489659e-11 -1 1 4.489659e-11 -1090.9696 1289.1299)">
			<stop  offset="0" style="stop-color:#1A1A1A"/>
			<stop  offset="1" style="stop-color:#F30000;stop-opacity:0"/>
		</linearGradient>
		<path id="path4173" style="fill:url(#path4173_00000137102998718767304720000013636749085638643359_);" d="M207.9,598l-1.8,6.2
			c-1.7-1-3.5-1.7-5.5-2c-16-3.1-34.3,21-38.5,43c-0.6,3.4-8.6,28.9-8.8,32.2h-4.1l12.1-41.4c5.5-26.3,22.4-44.9,38.2-41.9
			C202.7,594.6,205.5,596,207.9,598L207.9,598z"/>
		
			<linearGradient id="path4175_00000093158012756237134150000009088623274440733860_" gradientUnits="userSpaceOnUse" x1="756.1649" y1="1307.6627" x2="673.5626" y2="1306.4109" gradientTransform="matrix(4.010712e-11 -0.8933 0.8933 4.010712e-11 -993.7984 1287.6785)">
			<stop  offset="0" style="stop-color:#1A1A1A"/>
			<stop  offset="1" style="stop-color:#F30000;stop-opacity:0"/>
		</linearGradient>
		<path id="path4175" style="fill:url(#path4175_00000093158012756237134150000009088623274440733860_);" d="M193.2,642.5l-2.1,4
			c-1-0.9-2.2-1.6-3.4-2.1c-10.5-4.3-26.1,9.6-32,24c-0.2,0.5-0.8,1.6-1.5,3l3.5-12.2c7.6-15.5,20.6-24.5,30.4-20.5
			C190,639.5,191.8,640.8,193.2,642.5L193.2,642.5z"/>
		
			<linearGradient id="path4177_00000096762538875954167520000003801015569009679020_" gradientUnits="userSpaceOnUse" x1="747.8746" y1="1304.4338" x2="680.1156" y2="1308.4338" gradientTransform="matrix(4.010712e-11 -0.8933 0.8933 4.010712e-11 -997.3718 1301.486)">
			<stop  offset="0" style="stop-color:#1A1A1A"/>
			<stop  offset="1" style="stop-color:#F30000;stop-opacity:0"/>
		</linearGradient>
		<path id="path4177" style="fill:url(#path4177_00000096762538875954167520000003801015569009679020_);" d="M189.6,656.3l-2.1,4
			c-1-0.9-2.2-1.6-3.4-2.1c-10.5-4.3-26.1,9.6-32,24c-0.2,0.5-0.8,1.6-1.5,3l3.5-12.2c7.6-15.5,20.6-24.5,30.4-20.5
			C186.5,653.3,188.2,654.6,189.6,656.3L189.6,656.3z"/>
		
			<linearGradient id="path4179_00000046314151352497956970000011687771122542744214_" gradientUnits="userSpaceOnUse" x1="-5.7105" y1="997.7619" x2="-29.8136" y2="1003.2231" gradientTransform="matrix(-0.138 -0.9904 0.9904 -0.138 -836.9398 1378.9532)">
			<stop  offset="0" style="stop-color:#1A1A1A"/>
			<stop  offset="1" style="stop-color:#F30000;stop-opacity:0"/>
		</linearGradient>
		<path id="path4179" style="fill:url(#path4179_00000046314151352497956970000011687771122542744214_);" d="M169.9,1266.4
			c2-8.3,1.5-15.5-5.8-19.8l-17.9,2.5c-6.2,6.9-5,13.8-0.2,20.6L169.9,1266.4L169.9,1266.4z"/>
		
			<linearGradient id="path4181_00000084503442113973921590000005511533566785486982_" gradientUnits="userSpaceOnUse" x1="3.6812" y1="1000.3093" x2="-18.5926" y2="1000.7192" gradientTransform="matrix(-0.138 -0.9904 0.9904 -0.138 -838.2219 1368.691)">
			<stop  offset="0" style="stop-color:#1A1A1A"/>
			<stop  offset="1" style="stop-color:#F30000;stop-opacity:0"/>
		</linearGradient>
		<path id="path4181" style="fill:url(#path4181_00000084503442113973921590000005511533566785486982_);" d="M166.6,1246.1
			c1.2-8.2,0.6-15.2-5.5-18.8l-17,2.4c-3,6.5-5.2,13-0.1,19.6L166.6,1246.1L166.6,1246.1z"/>
		<path id="path4183" class="st15" d="M162.9,1099.3c0,33.5-1.8,65.5-5.1,95.1l-0.4,3.7l-3.2-1.7c-12.7-6.7-21.1-16.6-26.4-29.1
			c-5.3-12.5-7.6-27.6-8.4-45.1c-1.6-35,2.6-80,2-133.6c-0.6-49.7-1.9-89.5-2.4-121.5l4.8-1.1
			C147.3,913.8,162.9,1000.3,162.9,1099.3z M157.9,1099.3c0-91.2-13.5-171.7-33.7-220.1c0.6,30,1.6,65.2,2.1,109.3
			c0.6,53.9-3.7,99-2,133.4c0.8,17.2,3.1,31.8,8.1,43.4c4.5,10.5,11.2,18.5,20.9,24.5C156.2,1161.5,157.9,1131.1,157.9,1099.3z"/>
	</g>
</g>
</svg>
